<?xml version="1.0" encoding="UTF-8"?>
<svg xmlns="http://www.w3.org/2000/svg" xmlns:xlink="http://www.w3.org/1999/xlink" width="396pt" height="252pt" viewBox="0 0 396 252">
<defs>
<g>
<g id="glyph-0-0">
<path d="M 0.804688 0 L 0.804688 -7.875 L 1.847656 -7.875 L 1.847656 -0.929688 L 5.726562 -0.929688 L 5.726562 0 Z M 0.804688 0 "/>
</g>
<g id="glyph-0-1">
<path d="M 0.457031 -2.0625 L 1.472656 -2.148438 C 1.542969 -1.652344 1.71875 -1.28125 1.996094 -1.03125 C 2.265625 -0.78125 2.59375 -0.65625 2.984375 -0.660156 C 3.445312 -0.65625 3.839844 -0.832031 4.167969 -1.1875 C 4.488281 -1.535156 4.652344 -2 4.652344 -2.582031 C 4.652344 -3.132812 4.496094 -3.566406 4.1875 -3.886719 C 3.875 -4.203125 3.46875 -4.363281 2.96875 -4.367188 C 2.65625 -4.363281 2.375 -4.292969 2.125 -4.152344 C 1.871094 -4.007812 1.675781 -3.824219 1.535156 -3.605469 L 0.628906 -3.722656 L 1.390625 -7.765625 L 5.304688 -7.765625 L 5.304688 -6.84375 L 2.164062 -6.84375 L 1.742188 -4.726562 C 2.210938 -5.050781 2.707031 -5.214844 3.226562 -5.21875 C 3.910156 -5.214844 4.488281 -4.976562 4.964844 -4.503906 C 5.433594 -4.027344 5.671875 -3.414062 5.675781 -2.667969 C 5.671875 -1.953125 5.464844 -1.339844 5.054688 -0.820312 C 4.546875 -0.1875 3.855469 0.128906 2.984375 0.132812 C 2.265625 0.128906 1.683594 -0.0703125 1.234375 -0.46875 C 0.777344 -0.867188 0.519531 -1.398438 0.457031 -2.0625 Z M 0.457031 -2.0625 "/>
</g>
<g id="glyph-0-2">
<path d="M 0.457031 -3.882812 C 0.457031 -4.8125 0.550781 -5.5625 0.742188 -6.132812 C 0.933594 -6.699219 1.21875 -7.136719 1.597656 -7.445312 C 1.972656 -7.75 2.449219 -7.902344 3.023438 -7.90625 C 3.445312 -7.902344 3.8125 -7.816406 4.132812 -7.648438 C 4.449219 -7.476562 4.714844 -7.234375 4.925781 -6.914062 C 5.132812 -6.59375 5.296875 -6.203125 5.414062 -5.742188 C 5.53125 -5.28125 5.589844 -4.660156 5.589844 -3.882812 C 5.589844 -2.957031 5.492188 -2.210938 5.304688 -1.644531 C 5.113281 -1.078125 4.832031 -0.640625 4.457031 -0.332031 C 4.078125 -0.0234375 3.601562 0.128906 3.023438 0.132812 C 2.265625 0.128906 1.667969 -0.140625 1.234375 -0.683594 C 0.714844 -1.335938 0.457031 -2.402344 0.457031 -3.882812 Z M 1.449219 -3.882812 C 1.445312 -2.589844 1.597656 -1.730469 1.902344 -1.300781 C 2.203125 -0.871094 2.578125 -0.65625 3.023438 -0.660156 C 3.46875 -0.65625 3.839844 -0.871094 4.144531 -1.304688 C 4.441406 -1.730469 4.59375 -2.589844 4.597656 -3.882812 C 4.59375 -5.175781 4.441406 -6.035156 4.144531 -6.464844 C 3.839844 -6.886719 3.464844 -7.101562 3.011719 -7.105469 C 2.566406 -7.101562 2.210938 -6.914062 1.949219 -6.542969 C 1.613281 -6.058594 1.445312 -5.171875 1.449219 -3.882812 Z M 1.449219 -3.882812 "/>
</g>
<g id="glyph-0-3">
</g>
<g id="glyph-0-4">
<path d="M 5.8125 -4.628906 L 0.613281 -4.628906 L 0.613281 -5.53125 L 5.8125 -5.53125 Z M 5.8125 -2.238281 L 0.613281 -2.238281 L 0.613281 -3.140625 L 5.8125 -3.140625 Z M 5.8125 -2.238281 "/>
</g>
<g id="glyph-0-5">
<path d="M 0.460938 -2.078125 L 1.429688 -2.207031 C 1.539062 -1.65625 1.726562 -1.261719 1.992188 -1.023438 C 2.257812 -0.777344 2.582031 -0.65625 2.96875 -0.660156 C 3.421875 -0.65625 3.804688 -0.8125 4.121094 -1.132812 C 4.433594 -1.445312 4.59375 -1.835938 4.59375 -2.304688 C 4.59375 -2.742188 4.445312 -3.109375 4.15625 -3.402344 C 3.863281 -3.6875 3.496094 -3.832031 3.050781 -3.835938 C 2.867188 -3.832031 2.640625 -3.796875 2.367188 -3.726562 L 2.476562 -4.578125 C 2.539062 -4.566406 2.589844 -4.5625 2.632812 -4.566406 C 3.039062 -4.5625 3.410156 -4.671875 3.742188 -4.886719 C 4.070312 -5.101562 4.234375 -5.433594 4.238281 -5.882812 C 4.234375 -6.234375 4.117188 -6.527344 3.878906 -6.761719 C 3.636719 -6.992188 3.324219 -7.105469 2.949219 -7.109375 C 2.566406 -7.105469 2.253906 -6.988281 2.007812 -6.753906 C 1.753906 -6.515625 1.59375 -6.164062 1.523438 -5.695312 L 0.558594 -5.867188 C 0.671875 -6.507812 0.941406 -7.011719 1.363281 -7.371094 C 1.78125 -7.726562 2.300781 -7.902344 2.925781 -7.90625 C 3.351562 -7.902344 3.75 -7.8125 4.113281 -7.628906 C 4.472656 -7.441406 4.746094 -7.1875 4.941406 -6.875 C 5.128906 -6.554688 5.226562 -6.21875 5.230469 -5.859375 C 5.226562 -5.519531 5.136719 -5.207031 4.957031 -4.929688 C 4.773438 -4.648438 4.503906 -4.429688 4.148438 -4.265625 C 4.609375 -4.15625 4.96875 -3.929688 5.230469 -3.59375 C 5.484375 -3.253906 5.613281 -2.832031 5.617188 -2.324219 C 5.613281 -1.632812 5.363281 -1.050781 4.863281 -0.574219 C 4.363281 -0.0976562 3.730469 0.140625 2.964844 0.140625 C 2.273438 0.140625 1.699219 -0.0625 1.242188 -0.476562 C 0.785156 -0.882812 0.523438 -1.417969 0.460938 -2.078125 Z M 0.460938 -2.078125 "/>
</g>
<g id="glyph-0-6">
<path d="M 1.945312 -4.269531 C 1.542969 -4.414062 1.242188 -4.625 1.050781 -4.898438 C 0.855469 -5.167969 0.761719 -5.492188 0.761719 -5.875 C 0.761719 -6.445312 0.964844 -6.925781 1.378906 -7.320312 C 1.789062 -7.707031 2.339844 -7.902344 3.023438 -7.90625 C 3.710938 -7.902344 4.261719 -7.703125 4.683594 -7.304688 C 5.097656 -6.902344 5.308594 -6.417969 5.3125 -5.847656 C 5.308594 -5.480469 5.210938 -5.160156 5.023438 -4.894531 C 4.828125 -4.621094 4.539062 -4.414062 4.152344 -4.269531 C 4.632812 -4.109375 5 -3.855469 5.253906 -3.507812 C 5.503906 -3.152344 5.628906 -2.734375 5.632812 -2.25 C 5.628906 -1.578125 5.390625 -1.011719 4.917969 -0.554688 C 4.441406 -0.0976562 3.816406 0.128906 3.039062 0.132812 C 2.261719 0.128906 1.636719 -0.0976562 1.160156 -0.554688 C 0.683594 -1.011719 0.445312 -1.585938 0.445312 -2.277344 C 0.445312 -2.789062 0.574219 -3.21875 0.835938 -3.5625 C 1.09375 -3.90625 1.464844 -4.140625 1.945312 -4.269531 Z M 1.75 -5.90625 C 1.746094 -5.535156 1.867188 -5.230469 2.109375 -4.996094 C 2.347656 -4.757812 2.660156 -4.640625 3.046875 -4.640625 C 3.417969 -4.640625 3.722656 -4.757812 3.960938 -4.992188 C 4.199219 -5.226562 4.316406 -5.511719 4.320312 -5.855469 C 4.316406 -6.207031 4.195312 -6.503906 3.949219 -6.746094 C 3.703125 -6.984375 3.398438 -7.105469 3.035156 -7.109375 C 2.664062 -7.105469 2.355469 -6.988281 2.113281 -6.753906 C 1.867188 -6.515625 1.746094 -6.234375 1.75 -5.90625 Z M 1.4375 -2.273438 C 1.433594 -1.996094 1.5 -1.726562 1.632812 -1.472656 C 1.761719 -1.210938 1.957031 -1.011719 2.21875 -0.871094 C 2.472656 -0.726562 2.75 -0.65625 3.050781 -0.660156 C 3.507812 -0.65625 3.886719 -0.804688 4.191406 -1.105469 C 4.488281 -1.398438 4.640625 -1.777344 4.644531 -2.238281 C 4.640625 -2.703125 4.484375 -3.085938 4.179688 -3.394531 C 3.867188 -3.695312 3.480469 -3.847656 3.019531 -3.851562 C 2.558594 -3.847656 2.183594 -3.699219 1.886719 -3.398438 C 1.585938 -3.097656 1.433594 -2.722656 1.4375 -2.273438 Z M 1.4375 -2.273438 "/>
</g>
<g id="glyph-0-7">
<path d="M 0.726562 0 L 0.726562 -5.703125 L 1.589844 -5.703125 L 1.589844 -4.902344 C 1.765625 -5.179688 2.003906 -5.40625 2.304688 -5.578125 C 2.597656 -5.746094 2.9375 -5.828125 3.320312 -5.832031 C 3.738281 -5.828125 4.085938 -5.742188 4.359375 -5.566406 C 4.628906 -5.390625 4.816406 -5.144531 4.929688 -4.835938 C 5.378906 -5.496094 5.96875 -5.828125 6.691406 -5.832031 C 7.253906 -5.828125 7.6875 -5.671875 7.996094 -5.363281 C 8.296875 -5.046875 8.449219 -4.566406 8.453125 -3.914062 L 8.453125 0 L 7.492188 0 L 7.492188 -3.59375 C 7.488281 -3.976562 7.457031 -4.253906 7.398438 -4.425781 C 7.332031 -4.59375 7.21875 -4.734375 7.058594 -4.839844 C 6.890625 -4.941406 6.695312 -4.992188 6.476562 -4.996094 C 6.070312 -4.992188 5.738281 -4.859375 5.476562 -4.59375 C 5.210938 -4.328125 5.078125 -3.898438 5.082031 -3.3125 L 5.082031 0 L 4.113281 0 L 4.113281 -3.707031 C 4.113281 -4.132812 4.03125 -4.453125 3.875 -4.671875 C 3.714844 -4.882812 3.460938 -4.992188 3.105469 -4.996094 C 2.832031 -4.992188 2.578125 -4.921875 2.347656 -4.78125 C 2.117188 -4.636719 1.949219 -4.425781 1.847656 -4.152344 C 1.738281 -3.875 1.6875 -3.476562 1.691406 -2.960938 L 1.691406 0 Z M 0.726562 0 "/>
</g>
<g id="glyph-0-8">
<path d="M 6.46875 -2.761719 L 7.507812 -2.496094 C 7.285156 -1.640625 6.894531 -0.988281 6.328125 -0.539062 C 5.757812 -0.09375 5.0625 0.128906 4.25 0.132812 C 3.398438 0.128906 2.707031 -0.0390625 2.175781 -0.382812 C 1.640625 -0.726562 1.238281 -1.226562 0.960938 -1.882812 C 0.683594 -2.535156 0.542969 -3.242188 0.546875 -3.996094 C 0.542969 -4.816406 0.699219 -5.53125 1.015625 -6.140625 C 1.328125 -6.75 1.777344 -7.210938 2.355469 -7.53125 C 2.933594 -7.84375 3.570312 -8.003906 4.265625 -8.007812 C 5.050781 -8.003906 5.710938 -7.804688 6.25 -7.40625 C 6.785156 -7.003906 7.160156 -6.4375 7.375 -5.714844 L 6.347656 -5.472656 C 6.160156 -6.042969 5.894531 -6.457031 5.550781 -6.722656 C 5.199219 -6.980469 4.765625 -7.113281 4.242188 -7.117188 C 3.636719 -7.113281 3.128906 -6.96875 2.726562 -6.679688 C 2.316406 -6.390625 2.03125 -6 1.867188 -5.511719 C 1.699219 -5.023438 1.617188 -4.519531 1.621094 -4 C 1.617188 -3.328125 1.714844 -2.742188 1.914062 -2.246094 C 2.105469 -1.746094 2.410156 -1.375 2.824219 -1.128906 C 3.234375 -0.878906 3.679688 -0.753906 4.164062 -0.757812 C 4.746094 -0.753906 5.238281 -0.921875 5.644531 -1.261719 C 6.042969 -1.59375 6.320312 -2.09375 6.46875 -2.761719 Z M 6.46875 -2.761719 "/>
</g>
<g id="glyph-0-9">
<path d="M 0.367188 -2.851562 C 0.363281 -3.90625 0.65625 -4.6875 1.246094 -5.199219 C 1.734375 -5.617188 2.332031 -5.828125 3.039062 -5.832031 C 3.820312 -5.828125 4.460938 -5.574219 4.960938 -5.0625 C 5.457031 -4.546875 5.707031 -3.835938 5.710938 -2.933594 C 5.707031 -2.195312 5.597656 -1.617188 5.378906 -1.199219 C 5.15625 -0.777344 4.832031 -0.449219 4.414062 -0.21875 C 3.992188 0.015625 3.535156 0.128906 3.039062 0.128906 C 2.238281 0.128906 1.59375 -0.125 1.105469 -0.636719 C 0.609375 -1.148438 0.363281 -1.886719 0.367188 -2.851562 Z M 1.359375 -2.851562 C 1.359375 -2.121094 1.515625 -1.574219 1.835938 -1.210938 C 2.152344 -0.84375 2.554688 -0.660156 3.039062 -0.664062 C 3.515625 -0.660156 3.914062 -0.84375 4.234375 -1.210938 C 4.550781 -1.574219 4.710938 -2.132812 4.714844 -2.882812 C 4.710938 -3.585938 4.550781 -4.117188 4.234375 -4.484375 C 3.910156 -4.84375 3.511719 -5.027344 3.039062 -5.03125 C 2.554688 -5.027344 2.152344 -4.847656 1.835938 -4.488281 C 1.515625 -4.128906 1.359375 -3.582031 1.359375 -2.851562 Z M 1.359375 -2.851562 "/>
</g>
<g id="glyph-0-10">
<path d="M 0.726562 2.1875 L 0.726562 -5.703125 L 1.605469 -5.703125 L 1.605469 -4.960938 C 1.8125 -5.25 2.046875 -5.46875 2.308594 -5.613281 C 2.570312 -5.757812 2.886719 -5.828125 3.261719 -5.832031 C 3.746094 -5.828125 4.175781 -5.703125 4.550781 -5.457031 C 4.921875 -5.203125 5.203125 -4.851562 5.390625 -4.394531 C 5.578125 -3.9375 5.671875 -3.4375 5.675781 -2.894531 C 5.671875 -2.308594 5.566406 -1.78125 5.359375 -1.316406 C 5.148438 -0.847656 4.84375 -0.488281 4.449219 -0.242188 C 4.046875 0.0078125 3.628906 0.128906 3.191406 0.128906 C 2.867188 0.128906 2.578125 0.0625 2.320312 -0.0742188 C 2.0625 -0.210938 1.851562 -0.382812 1.691406 -0.589844 L 1.691406 2.1875 Z M 1.601562 -2.820312 C 1.597656 -2.082031 1.746094 -1.539062 2.046875 -1.191406 C 2.339844 -0.835938 2.699219 -0.660156 3.125 -0.664062 C 3.550781 -0.660156 3.917969 -0.84375 4.226562 -1.210938 C 4.53125 -1.574219 4.6875 -2.136719 4.6875 -2.898438 C 4.6875 -3.625 4.535156 -4.167969 4.238281 -4.53125 C 3.9375 -4.890625 3.582031 -5.074219 3.167969 -5.074219 C 2.753906 -5.074219 2.390625 -4.878906 2.074219 -4.496094 C 1.757812 -4.109375 1.597656 -3.550781 1.601562 -2.820312 Z M 1.601562 -2.820312 "/>
</g>
<g id="glyph-0-11">
<path d="M 0.714844 0 L 0.714844 -5.703125 L 1.585938 -5.703125 L 1.585938 -4.839844 C 1.804688 -5.242188 2.007812 -5.507812 2.199219 -5.636719 C 2.382812 -5.765625 2.589844 -5.828125 2.820312 -5.832031 C 3.140625 -5.828125 3.472656 -5.726562 3.8125 -5.523438 L 3.480469 -4.625 C 3.242188 -4.761719 3.003906 -4.832031 2.773438 -4.835938 C 2.554688 -4.832031 2.363281 -4.769531 2.199219 -4.644531 C 2.027344 -4.515625 1.910156 -4.339844 1.84375 -4.113281 C 1.730469 -3.769531 1.675781 -3.390625 1.679688 -2.984375 L 1.679688 0 Z M 0.714844 0 "/>
</g>
<g id="glyph-0-12">
<path d="M 0.730469 -6.761719 L 0.730469 -7.875 L 1.695312 -7.875 L 1.695312 -6.761719 Z M 0.730469 0 L 0.730469 -5.703125 L 1.695312 -5.703125 L 1.695312 0 Z M 0.730469 0 "/>
</g>
<g id="glyph-0-13">
<path d="M 4.628906 -1.835938 L 5.628906 -1.714844 C 5.46875 -1.125 5.175781 -0.671875 4.75 -0.351562 C 4.324219 -0.03125 3.78125 0.128906 3.121094 0.128906 C 2.28125 0.128906 1.617188 -0.125 1.132812 -0.640625 C 0.640625 -1.152344 0.398438 -1.875 0.402344 -2.804688 C 0.398438 -3.761719 0.644531 -4.503906 1.144531 -5.035156 C 1.636719 -5.5625 2.277344 -5.828125 3.066406 -5.832031 C 3.824219 -5.828125 4.449219 -5.570312 4.933594 -5.050781 C 5.417969 -4.53125 5.660156 -3.800781 5.660156 -2.863281 C 5.660156 -2.804688 5.65625 -2.71875 5.65625 -2.605469 L 1.402344 -2.605469 C 1.433594 -1.976562 1.613281 -1.496094 1.933594 -1.164062 C 2.25 -0.828125 2.644531 -0.660156 3.125 -0.664062 C 3.476562 -0.660156 3.78125 -0.753906 4.03125 -0.945312 C 4.28125 -1.128906 4.480469 -1.425781 4.628906 -1.835938 Z M 1.457031 -3.398438 L 4.640625 -3.398438 C 4.597656 -3.878906 4.472656 -4.238281 4.273438 -4.480469 C 3.960938 -4.851562 3.5625 -5.039062 3.078125 -5.039062 C 2.628906 -5.039062 2.257812 -4.890625 1.957031 -4.59375 C 1.652344 -4.296875 1.484375 -3.898438 1.457031 -3.398438 Z M 1.457031 -3.398438 "/>
</g>
<g id="glyph-0-14">
<path d="M 0.726562 0 L 0.726562 -5.703125 L 1.59375 -5.703125 L 1.59375 -4.894531 C 2.011719 -5.515625 2.617188 -5.828125 3.410156 -5.832031 C 3.753906 -5.828125 4.066406 -5.765625 4.355469 -5.644531 C 4.640625 -5.519531 4.859375 -5.359375 5.003906 -5.160156 C 5.144531 -4.957031 5.242188 -4.71875 5.304688 -4.445312 C 5.335938 -4.265625 5.355469 -3.953125 5.359375 -3.507812 L 5.359375 0 L 4.394531 0 L 4.394531 -3.46875 C 4.394531 -3.863281 4.355469 -4.15625 4.28125 -4.351562 C 4.203125 -4.542969 4.070312 -4.699219 3.878906 -4.820312 C 3.6875 -4.933594 3.460938 -4.992188 3.207031 -4.996094 C 2.792969 -4.992188 2.4375 -4.859375 2.140625 -4.601562 C 1.835938 -4.335938 1.6875 -3.84375 1.691406 -3.117188 L 1.691406 0 Z M 0.726562 0 "/>
</g>
<g id="glyph-0-15">
<path d="M 2.835938 -0.863281 L 2.976562 -0.0117188 C 2.703125 0.0429688 2.457031 0.0703125 2.246094 0.0742188 C 1.890625 0.0703125 1.621094 0.0195312 1.429688 -0.0898438 C 1.234375 -0.199219 1.097656 -0.347656 1.019531 -0.527344 C 0.941406 -0.707031 0.902344 -1.085938 0.902344 -1.671875 L 0.902344 -4.953125 L 0.195312 -4.953125 L 0.195312 -5.703125 L 0.902344 -5.703125 L 0.902344 -7.117188 L 1.863281 -7.695312 L 1.863281 -5.703125 L 2.835938 -5.703125 L 2.835938 -4.953125 L 1.863281 -4.953125 L 1.863281 -1.617188 C 1.863281 -1.339844 1.878906 -1.160156 1.914062 -1.085938 C 1.945312 -1.003906 2 -0.941406 2.078125 -0.898438 C 2.152344 -0.847656 2.261719 -0.824219 2.410156 -0.828125 C 2.515625 -0.824219 2.660156 -0.835938 2.835938 -0.863281 Z M 2.835938 -0.863281 "/>
</g>
<g id="glyph-0-16">
<path d="M 4.445312 -0.703125 C 4.085938 -0.398438 3.742188 -0.183594 3.414062 -0.0585938 C 3.082031 0.0664062 2.726562 0.128906 2.347656 0.128906 C 1.71875 0.128906 1.238281 -0.0234375 0.902344 -0.328125 C 0.566406 -0.632812 0.398438 -1.023438 0.398438 -1.503906 C 0.398438 -1.78125 0.460938 -2.035156 0.585938 -2.269531 C 0.710938 -2.496094 0.875 -2.683594 1.085938 -2.824219 C 1.289062 -2.964844 1.523438 -3.070312 1.78125 -3.140625 C 1.96875 -3.191406 2.253906 -3.238281 2.640625 -3.289062 C 3.417969 -3.375 3.992188 -3.488281 4.367188 -3.621094 C 4.367188 -3.753906 4.371094 -3.835938 4.371094 -3.871094 C 4.371094 -4.265625 4.277344 -4.542969 4.097656 -4.703125 C 3.847656 -4.917969 3.480469 -5.027344 2.996094 -5.03125 C 2.539062 -5.027344 2.203125 -4.949219 1.988281 -4.792969 C 1.769531 -4.632812 1.609375 -4.351562 1.507812 -3.949219 L 0.5625 -4.078125 C 0.648438 -4.480469 0.789062 -4.804688 0.988281 -5.054688 C 1.183594 -5.300781 1.46875 -5.492188 1.84375 -5.628906 C 2.214844 -5.761719 2.644531 -5.828125 3.136719 -5.832031 C 3.621094 -5.828125 4.019531 -5.773438 4.324219 -5.660156 C 4.628906 -5.542969 4.851562 -5.398438 4.996094 -5.226562 C 5.136719 -5.054688 5.238281 -4.835938 5.296875 -4.570312 C 5.328125 -4.40625 5.34375 -4.109375 5.34375 -3.679688 L 5.34375 -2.390625 C 5.34375 -1.492188 5.363281 -0.921875 5.40625 -0.683594 C 5.445312 -0.445312 5.527344 -0.21875 5.648438 0 L 4.640625 0 C 4.539062 -0.199219 4.472656 -0.433594 4.445312 -0.703125 Z M 4.367188 -2.863281 C 4.011719 -2.71875 3.488281 -2.597656 2.789062 -2.496094 C 2.390625 -2.4375 2.105469 -2.371094 1.941406 -2.300781 C 1.773438 -2.226562 1.648438 -2.121094 1.5625 -1.988281 C 1.472656 -1.847656 1.429688 -1.695312 1.429688 -1.53125 C 1.429688 -1.269531 1.527344 -1.054688 1.722656 -0.886719 C 1.917969 -0.710938 2.203125 -0.625 2.578125 -0.628906 C 2.949219 -0.625 3.277344 -0.707031 3.570312 -0.871094 C 3.859375 -1.03125 4.074219 -1.253906 4.210938 -1.542969 C 4.3125 -1.753906 4.363281 -2.078125 4.367188 -2.507812 Z M 4.367188 -2.863281 "/>
</g>
<g id="glyph-0-17">
<path d="M 0.703125 0 L 0.703125 -7.875 L 1.671875 -7.875 L 1.671875 0 Z M 0.703125 0 "/>
</g>
<g id="glyph-0-18">
<path d="M 2.574219 2.316406 C 2.035156 1.636719 1.585938 0.851562 1.21875 -0.046875 C 0.847656 -0.949219 0.660156 -1.882812 0.664062 -2.851562 C 0.660156 -3.699219 0.800781 -4.515625 1.078125 -5.300781 C 1.398438 -6.203125 1.894531 -7.105469 2.574219 -8.007812 L 3.265625 -8.007812 C 2.828125 -7.261719 2.542969 -6.730469 2.40625 -6.414062 C 2.183594 -5.917969 2.011719 -5.402344 1.890625 -4.867188 C 1.734375 -4.195312 1.65625 -3.523438 1.660156 -2.847656 C 1.65625 -1.121094 2.191406 0.597656 3.265625 2.316406 Z M 2.574219 2.316406 "/>
</g>
<g id="glyph-0-19">
<path d="M 1.359375 2.316406 L 0.664062 2.316406 C 1.734375 0.597656 2.273438 -1.121094 2.273438 -2.847656 C 2.273438 -3.519531 2.195312 -4.1875 2.039062 -4.851562 C 1.917969 -5.386719 1.746094 -5.902344 1.53125 -6.398438 C 1.386719 -6.71875 1.097656 -7.253906 0.664062 -8.007812 L 1.359375 -8.007812 C 2.03125 -7.105469 2.527344 -6.203125 2.851562 -5.300781 C 3.125 -4.515625 3.261719 -3.699219 3.265625 -2.851562 C 3.261719 -1.882812 3.078125 -0.949219 2.707031 -0.046875 C 2.335938 0.851562 1.886719 1.636719 1.359375 2.316406 Z M 1.359375 2.316406 "/>
</g>
<g id="glyph-1-0">
<path d="M 0.367188 -3.105469 C 0.363281 -3.847656 0.4375 -4.445312 0.59375 -4.902344 C 0.742188 -5.355469 0.972656 -5.707031 1.277344 -5.953125 C 1.578125 -6.199219 1.957031 -6.320312 2.417969 -6.324219 C 2.753906 -6.320312 3.050781 -6.253906 3.308594 -6.121094 C 3.5625 -5.984375 3.773438 -5.789062 3.9375 -5.53125 C 4.101562 -5.273438 4.230469 -4.960938 4.328125 -4.59375 C 4.421875 -4.226562 4.46875 -3.730469 4.472656 -3.105469 C 4.46875 -2.367188 4.394531 -1.769531 4.242188 -1.316406 C 4.089844 -0.859375 3.863281 -0.507812 3.5625 -0.261719 C 3.257812 -0.015625 2.875 0.105469 2.417969 0.109375 C 1.808594 0.105469 1.332031 -0.109375 0.988281 -0.546875 C 0.570312 -1.066406 0.363281 -1.921875 0.367188 -3.105469 Z M 1.160156 -3.105469 C 1.160156 -2.070312 1.28125 -1.378906 1.523438 -1.039062 C 1.765625 -0.695312 2.0625 -0.527344 2.417969 -0.527344 C 2.773438 -0.527344 3.074219 -0.699219 3.316406 -1.042969 C 3.558594 -1.386719 3.679688 -2.074219 3.679688 -3.105469 C 3.679688 -4.144531 3.558594 -4.832031 3.316406 -5.171875 C 3.074219 -5.511719 2.769531 -5.683594 2.410156 -5.683594 C 2.050781 -5.683594 1.769531 -5.53125 1.558594 -5.234375 C 1.292969 -4.84375 1.160156 -4.136719 1.160156 -3.105469 Z M 1.160156 -3.105469 "/>
</g>
<g id="glyph-1-1">
<path d="M 0.800781 0 L 0.800781 -0.882812 L 1.679688 -0.882812 L 1.679688 0 Z M 0.800781 0 "/>
</g>
<g id="glyph-1-2">
<path d="M 4.429688 -0.742188 L 4.429688 0 L 0.265625 0 C 0.257812 -0.1875 0.289062 -0.367188 0.355469 -0.539062 C 0.460938 -0.820312 0.628906 -1.097656 0.863281 -1.375 C 1.09375 -1.648438 1.433594 -1.964844 1.878906 -2.328125 C 2.5625 -2.886719 3.023438 -3.332031 3.265625 -3.664062 C 3.5 -3.988281 3.621094 -4.300781 3.625 -4.59375 C 3.621094 -4.898438 3.511719 -5.15625 3.296875 -5.367188 C 3.074219 -5.578125 2.789062 -5.683594 2.441406 -5.683594 C 2.066406 -5.683594 1.769531 -5.570312 1.546875 -5.347656 C 1.320312 -5.125 1.207031 -4.816406 1.207031 -4.421875 L 0.414062 -4.503906 C 0.464844 -5.09375 0.667969 -5.542969 1.027344 -5.855469 C 1.378906 -6.164062 1.855469 -6.320312 2.457031 -6.324219 C 3.058594 -6.320312 3.539062 -6.152344 3.890625 -5.820312 C 4.242188 -5.484375 4.417969 -5.070312 4.421875 -4.578125 C 4.417969 -4.320312 4.367188 -4.074219 4.265625 -3.832031 C 4.164062 -3.589844 3.992188 -3.332031 3.753906 -3.0625 C 3.511719 -2.792969 3.113281 -2.425781 2.5625 -1.957031 C 2.09375 -1.566406 1.796875 -1.300781 1.664062 -1.160156 C 1.53125 -1.019531 1.421875 -0.878906 1.339844 -0.742188 Z M 4.429688 -0.742188 "/>
</g>
<g id="glyph-1-3">
<path d="M 0.367188 -1.648438 L 1.175781 -1.71875 C 1.234375 -1.320312 1.375 -1.023438 1.59375 -0.824219 C 1.8125 -0.625 2.078125 -0.527344 2.390625 -0.527344 C 2.761719 -0.527344 3.074219 -0.667969 3.335938 -0.949219 C 3.589844 -1.230469 3.71875 -1.601562 3.722656 -2.066406 C 3.71875 -2.503906 3.59375 -2.851562 3.347656 -3.109375 C 3.097656 -3.363281 2.773438 -3.492188 2.375 -3.492188 C 2.125 -3.492188 1.902344 -3.433594 1.703125 -3.320312 C 1.5 -3.207031 1.34375 -3.0625 1.230469 -2.882812 L 0.503906 -2.976562 L 1.113281 -6.214844 L 4.246094 -6.214844 L 4.246094 -5.472656 L 1.730469 -5.472656 L 1.390625 -3.78125 C 1.765625 -4.039062 2.164062 -4.171875 2.582031 -4.175781 C 3.128906 -4.171875 3.59375 -3.980469 3.972656 -3.605469 C 4.351562 -3.222656 4.539062 -2.734375 4.542969 -2.136719 C 4.539062 -1.5625 4.375 -1.070312 4.042969 -0.65625 C 3.636719 -0.148438 3.085938 0.105469 2.390625 0.109375 C 1.816406 0.105469 1.347656 -0.0507812 0.984375 -0.371094 C 0.621094 -0.691406 0.414062 -1.117188 0.367188 -1.648438 Z M 0.367188 -1.648438 "/>
</g>
<g id="glyph-1-4">
<path d="M 0.417969 -5.472656 L 0.417969 -6.21875 L 4.496094 -6.21875 L 4.496094 -5.617188 C 4.089844 -5.1875 3.691406 -4.621094 3.300781 -3.914062 C 2.902344 -3.203125 2.601562 -2.472656 2.390625 -1.730469 C 2.234375 -1.199219 2.132812 -0.625 2.09375 0 L 1.296875 0 C 1.304688 -0.492188 1.402344 -1.089844 1.589844 -1.792969 C 1.773438 -2.496094 2.042969 -3.171875 2.390625 -3.824219 C 2.738281 -4.476562 3.109375 -5.027344 3.503906 -5.472656 Z M 0.417969 -5.472656 "/>
</g>
<g id="glyph-1-5">
<path d="M 3.277344 0 L 2.503906 0 L 2.503906 -4.929688 C 2.316406 -4.75 2.074219 -4.574219 1.773438 -4.394531 C 1.46875 -4.214844 1.195312 -4.082031 0.957031 -3.996094 L 0.957031 -4.742188 C 1.386719 -4.941406 1.765625 -5.1875 2.089844 -5.480469 C 2.414062 -5.769531 2.644531 -6.050781 2.78125 -6.324219 L 3.277344 -6.324219 Z M 3.277344 0 "/>
</g>
<g id="glyph-1-6">
<path d="M 2.84375 0 L 2.84375 -1.507812 L 0.113281 -1.507812 L 0.113281 -2.21875 L 2.988281 -6.300781 L 3.617188 -6.300781 L 3.617188 -2.21875 L 4.46875 -2.21875 L 4.46875 -1.507812 L 3.617188 -1.507812 L 3.617188 0 Z M 2.84375 -2.21875 L 2.84375 -5.058594 L 0.871094 -2.21875 Z M 2.84375 -2.21875 "/>
</g>
<g id="glyph-1-7">
<path d="M 4.378906 -4.757812 L 3.609375 -4.695312 C 3.539062 -4.996094 3.441406 -5.21875 3.316406 -5.359375 C 3.105469 -5.574219 2.847656 -5.683594 2.542969 -5.6875 C 2.296875 -5.683594 2.078125 -5.617188 1.894531 -5.484375 C 1.648438 -5.304688 1.457031 -5.042969 1.320312 -4.703125 C 1.175781 -4.363281 1.105469 -3.878906 1.101562 -3.25 C 1.285156 -3.53125 1.511719 -3.742188 1.78125 -3.878906 C 2.050781 -4.015625 2.332031 -4.082031 2.628906 -4.085938 C 3.140625 -4.082031 3.578125 -3.894531 3.945312 -3.515625 C 4.304688 -3.136719 4.488281 -2.644531 4.492188 -2.046875 C 4.488281 -1.648438 4.402344 -1.28125 4.234375 -0.941406 C 4.0625 -0.601562 3.828125 -0.339844 3.53125 -0.160156 C 3.230469 0.0195312 2.894531 0.105469 2.519531 0.109375 C 1.871094 0.105469 1.34375 -0.128906 0.941406 -0.601562 C 0.53125 -1.074219 0.328125 -1.855469 0.332031 -2.949219 C 0.328125 -4.160156 0.550781 -5.046875 1.003906 -5.601562 C 1.394531 -6.082031 1.925781 -6.320312 2.589844 -6.324219 C 3.085938 -6.320312 3.492188 -6.183594 3.808594 -5.90625 C 4.125 -5.628906 4.3125 -5.246094 4.378906 -4.757812 Z M 1.21875 -2.039062 C 1.21875 -1.773438 1.273438 -1.515625 1.386719 -1.273438 C 1.5 -1.027344 1.660156 -0.84375 1.863281 -0.71875 C 2.066406 -0.589844 2.277344 -0.527344 2.503906 -0.527344 C 2.828125 -0.527344 3.109375 -0.65625 3.347656 -0.921875 C 3.578125 -1.183594 3.695312 -1.542969 3.699219 -2 C 3.695312 -2.429688 3.582031 -2.773438 3.351562 -3.027344 C 3.117188 -3.273438 2.824219 -3.398438 2.476562 -3.402344 C 2.121094 -3.398438 1.824219 -3.273438 1.582031 -3.027344 C 1.339844 -2.773438 1.21875 -2.445312 1.21875 -2.039062 Z M 1.21875 -2.039062 "/>
</g>
<g id="glyph-1-8">
<path d="M 1.554688 -3.417969 C 1.230469 -3.53125 0.992188 -3.699219 0.839844 -3.917969 C 0.683594 -4.132812 0.609375 -4.394531 0.609375 -4.699219 C 0.609375 -5.15625 0.773438 -5.539062 1.101562 -5.855469 C 1.429688 -6.164062 1.867188 -6.320312 2.417969 -6.324219 C 2.96875 -6.320312 3.410156 -6.160156 3.746094 -5.84375 C 4.078125 -5.523438 4.246094 -5.136719 4.25 -4.679688 C 4.246094 -4.386719 4.171875 -4.132812 4.019531 -3.917969 C 3.863281 -3.699219 3.628906 -3.53125 3.320312 -3.417969 C 3.707031 -3.285156 4 -3.082031 4.203125 -2.804688 C 4.402344 -2.519531 4.503906 -2.183594 4.507812 -1.800781 C 4.503906 -1.257812 4.3125 -0.804688 3.933594 -0.441406 C 3.550781 -0.0742188 3.050781 0.105469 2.433594 0.109375 C 1.808594 0.105469 1.308594 -0.0742188 0.925781 -0.441406 C 0.542969 -0.808594 0.351562 -1.269531 0.355469 -1.820312 C 0.351562 -2.230469 0.457031 -2.574219 0.667969 -2.851562 C 0.875 -3.125 1.167969 -3.3125 1.554688 -3.417969 Z M 1.402344 -4.726562 C 1.398438 -4.425781 1.496094 -4.183594 1.6875 -3.996094 C 1.878906 -3.804688 2.128906 -3.707031 2.4375 -3.710938 C 2.734375 -3.707031 2.976562 -3.800781 3.167969 -3.992188 C 3.355469 -4.175781 3.449219 -4.40625 3.453125 -4.683594 C 3.449219 -4.964844 3.351562 -5.203125 3.160156 -5.398438 C 2.960938 -5.585938 2.71875 -5.683594 2.429688 -5.6875 C 2.128906 -5.683594 1.882812 -5.589844 1.691406 -5.402344 C 1.496094 -5.214844 1.398438 -4.988281 1.402344 -4.726562 Z M 1.152344 -1.816406 C 1.148438 -1.597656 1.199219 -1.382812 1.308594 -1.175781 C 1.410156 -0.96875 1.566406 -0.808594 1.773438 -0.695312 C 1.980469 -0.582031 2.203125 -0.527344 2.441406 -0.527344 C 2.808594 -0.527344 3.113281 -0.644531 3.355469 -0.882812 C 3.59375 -1.121094 3.714844 -1.425781 3.71875 -1.792969 C 3.714844 -2.164062 3.589844 -2.46875 3.34375 -2.714844 C 3.09375 -2.957031 2.785156 -3.082031 2.414062 -3.082031 C 2.050781 -3.082031 1.75 -2.960938 1.511719 -2.71875 C 1.269531 -2.476562 1.148438 -2.175781 1.152344 -1.816406 Z M 1.152344 -1.816406 "/>
</g>
<g id="glyph-1-9">
<path d="M 0.371094 -1.664062 L 1.144531 -1.765625 C 1.230469 -1.324219 1.382812 -1.007812 1.597656 -0.816406 C 1.808594 -0.621094 2.066406 -0.527344 2.375 -0.527344 C 2.734375 -0.527344 3.042969 -0.652344 3.296875 -0.90625 C 3.546875 -1.15625 3.671875 -1.46875 3.675781 -1.84375 C 3.671875 -2.195312 3.554688 -2.488281 3.324219 -2.71875 C 3.089844 -2.949219 2.796875 -3.0625 2.441406 -3.066406 C 2.292969 -3.0625 2.109375 -3.035156 1.894531 -2.980469 L 1.980469 -3.660156 C 2.03125 -3.652344 2.070312 -3.648438 2.105469 -3.652344 C 2.433594 -3.648438 2.730469 -3.734375 2.996094 -3.910156 C 3.253906 -4.078125 3.386719 -4.34375 3.390625 -4.703125 C 3.386719 -4.984375 3.289062 -5.21875 3.101562 -5.40625 C 2.90625 -5.589844 2.660156 -5.683594 2.359375 -5.6875 C 2.054688 -5.683594 1.804688 -5.589844 1.605469 -5.402344 C 1.402344 -5.214844 1.273438 -4.929688 1.21875 -4.554688 L 0.445312 -4.691406 C 0.539062 -5.207031 0.753906 -5.609375 1.089844 -5.894531 C 1.425781 -6.179688 1.84375 -6.320312 2.34375 -6.324219 C 2.6875 -6.320312 3.003906 -6.246094 3.292969 -6.101562 C 3.582031 -5.953125 3.800781 -5.753906 3.953125 -5.5 C 4.105469 -5.242188 4.183594 -4.972656 4.183594 -4.6875 C 4.183594 -4.414062 4.109375 -4.164062 3.964844 -3.945312 C 3.816406 -3.71875 3.601562 -3.542969 3.316406 -3.410156 C 3.6875 -3.324219 3.976562 -3.144531 4.183594 -2.875 C 4.390625 -2.601562 4.492188 -2.261719 4.496094 -1.859375 C 4.492188 -1.304688 4.292969 -0.839844 3.894531 -0.460938 C 3.492188 -0.078125 2.984375 0.109375 2.371094 0.113281 C 1.816406 0.109375 1.355469 -0.0507812 0.992188 -0.378906 C 0.625 -0.707031 0.417969 -1.136719 0.371094 -1.664062 Z M 0.371094 -1.664062 "/>
</g>
<g id="glyph-2-0">
<path d="M 0 -0.847656 L -7.875 -0.847656 L -7.875 -3.820312 C -7.875 -4.339844 -7.847656 -4.738281 -7.796875 -5.015625 C -7.730469 -5.402344 -7.609375 -5.726562 -7.429688 -5.988281 C -7.25 -6.25 -6.996094 -6.460938 -6.671875 -6.621094 C -6.34375 -6.777344 -5.984375 -6.855469 -5.597656 -6.859375 C -4.925781 -6.855469 -4.359375 -6.640625 -3.894531 -6.21875 C -3.429688 -5.789062 -3.199219 -5.019531 -3.199219 -3.910156 L -3.203125 -1.890625 L 0 -1.890625 Z M -4.128906 -1.890625 L -4.128906 -3.925781 C -4.125 -4.597656 -4.25 -5.074219 -4.503906 -5.359375 C -4.753906 -5.640625 -5.105469 -5.78125 -5.5625 -5.785156 C -5.890625 -5.78125 -6.175781 -5.699219 -6.410156 -5.535156 C -6.644531 -5.367188 -6.796875 -5.148438 -6.875 -4.875 C -6.917969 -4.699219 -6.941406 -4.375 -6.945312 -3.90625 L -6.945312 -1.890625 Z M -4.128906 -1.890625 "/>
</g>
<g id="glyph-2-1">
<path d="M 0 -0.714844 L -5.703125 -0.714844 L -5.703125 -1.585938 L -4.839844 -1.585938 C -5.242188 -1.804688 -5.507812 -2.007812 -5.636719 -2.199219 C -5.765625 -2.382812 -5.828125 -2.589844 -5.832031 -2.820312 C -5.828125 -3.140625 -5.726562 -3.472656 -5.523438 -3.8125 L -4.625 -3.480469 C -4.761719 -3.242188 -4.832031 -3.003906 -4.835938 -2.773438 C -4.832031 -2.554688 -4.769531 -2.363281 -4.644531 -2.199219 C -4.515625 -2.027344 -4.339844 -1.910156 -4.113281 -1.84375 C -3.769531 -1.730469 -3.390625 -1.675781 -2.984375 -1.679688 L 0 -1.679688 Z M 0 -0.714844 "/>
</g>
<g id="glyph-2-2">
<path d="M -2.851562 -0.367188 C -3.90625 -0.363281 -4.6875 -0.65625 -5.199219 -1.246094 C -5.617188 -1.734375 -5.828125 -2.332031 -5.832031 -3.039062 C -5.828125 -3.820312 -5.574219 -4.460938 -5.0625 -4.960938 C -4.546875 -5.457031 -3.835938 -5.707031 -2.933594 -5.710938 C -2.195312 -5.707031 -1.617188 -5.597656 -1.199219 -5.378906 C -0.777344 -5.15625 -0.449219 -4.832031 -0.21875 -4.414062 C 0.015625 -3.992188 0.128906 -3.535156 0.128906 -3.039062 C 0.128906 -2.238281 -0.125 -1.59375 -0.636719 -1.105469 C -1.148438 -0.609375 -1.886719 -0.363281 -2.851562 -0.367188 Z M -2.851562 -1.359375 C -2.121094 -1.359375 -1.574219 -1.515625 -1.210938 -1.835938 C -0.84375 -2.152344 -0.660156 -2.554688 -0.664062 -3.039062 C -0.660156 -3.515625 -0.84375 -3.914062 -1.210938 -4.234375 C -1.574219 -4.550781 -2.132812 -4.710938 -2.882812 -4.714844 C -3.585938 -4.710938 -4.117188 -4.550781 -4.484375 -4.234375 C -4.84375 -3.910156 -5.027344 -3.511719 -5.03125 -3.039062 C -5.027344 -2.554688 -4.847656 -2.152344 -4.488281 -1.835938 C -4.128906 -1.515625 -3.582031 -1.359375 -2.851562 -1.359375 Z M -2.851562 -1.359375 "/>
</g>
<g id="glyph-2-3">
<path d="M 2.1875 -0.726562 L -5.703125 -0.726562 L -5.703125 -1.605469 L -4.960938 -1.605469 C -5.25 -1.8125 -5.46875 -2.046875 -5.613281 -2.308594 C -5.757812 -2.570312 -5.828125 -2.886719 -5.832031 -3.261719 C -5.828125 -3.746094 -5.703125 -4.175781 -5.457031 -4.550781 C -5.203125 -4.921875 -4.851562 -5.203125 -4.394531 -5.390625 C -3.9375 -5.578125 -3.4375 -5.671875 -2.894531 -5.675781 C -2.308594 -5.671875 -1.78125 -5.566406 -1.316406 -5.359375 C -0.847656 -5.148438 -0.488281 -4.84375 -0.242188 -4.449219 C 0.0078125 -4.046875 0.128906 -3.628906 0.128906 -3.191406 C 0.128906 -2.867188 0.0625 -2.578125 -0.0742188 -2.320312 C -0.207031 -2.0625 -0.378906 -1.851562 -0.589844 -1.691406 L 2.1875 -1.691406 Z M -2.820312 -1.601562 C -2.082031 -1.597656 -1.539062 -1.746094 -1.191406 -2.046875 C -0.835938 -2.339844 -0.660156 -2.699219 -0.664062 -3.125 C -0.660156 -3.550781 -0.84375 -3.917969 -1.210938 -4.226562 C -1.574219 -4.53125 -2.136719 -4.6875 -2.898438 -4.6875 C -3.625 -4.6875 -4.167969 -4.535156 -4.53125 -4.238281 C -4.890625 -3.9375 -5.074219 -3.582031 -5.074219 -3.167969 C -5.074219 -2.753906 -4.878906 -2.390625 -4.496094 -2.074219 C -4.109375 -1.757812 -3.550781 -1.597656 -2.820312 -1.601562 Z M -2.820312 -1.601562 "/>
</g>
<g id="glyph-2-4">
<path d="M -2.089844 -4.445312 L -1.964844 -5.398438 C -1.308594 -5.289062 -0.796875 -5.023438 -0.425781 -4.597656 C -0.0546875 -4.167969 0.128906 -3.644531 0.128906 -3.023438 C 0.128906 -2.242188 -0.125 -1.613281 -0.636719 -1.140625 C -1.144531 -0.664062 -1.875 -0.425781 -2.832031 -0.429688 C -3.441406 -0.425781 -3.980469 -0.527344 -4.445312 -0.734375 C -4.90625 -0.9375 -5.253906 -1.25 -5.484375 -1.667969 C -5.714844 -2.082031 -5.828125 -2.535156 -5.832031 -3.03125 C -5.828125 -3.644531 -5.671875 -4.152344 -5.363281 -4.546875 C -5.046875 -4.941406 -4.601562 -5.191406 -4.027344 -5.304688 L -3.882812 -4.367188 C -4.261719 -4.273438 -4.550781 -4.117188 -4.746094 -3.890625 C -4.941406 -3.664062 -5.039062 -3.386719 -5.039062 -3.066406 C -5.039062 -2.574219 -4.863281 -2.179688 -4.515625 -1.878906 C -4.164062 -1.570312 -3.613281 -1.417969 -2.859375 -1.421875 C -2.089844 -1.417969 -1.53125 -1.566406 -1.183594 -1.863281 C -0.835938 -2.15625 -0.660156 -2.539062 -0.664062 -3.011719 C -0.660156 -3.390625 -0.777344 -3.707031 -1.011719 -3.960938 C -1.242188 -4.214844 -1.601562 -4.375 -2.089844 -4.445312 Z M 0.71875 -2.207031 L -0.230469 -2.488281 L -0.230469 -3.207031 L 0.34375 -3.03125 C 0.378906 -3.328125 0.472656 -3.558594 0.625 -3.714844 C 0.777344 -3.871094 0.945312 -3.949219 1.132812 -3.949219 C 1.398438 -3.949219 1.636719 -3.820312 1.84375 -3.5625 C 2.046875 -3.304688 2.148438 -2.914062 2.152344 -2.394531 C 2.148438 -2.097656 2.128906 -1.839844 2.089844 -1.621094 L 1.460938 -1.679688 C 1.472656 -1.90625 1.480469 -2.074219 1.484375 -2.1875 C 1.480469 -2.519531 1.433594 -2.757812 1.34375 -2.894531 C 1.265625 -2.996094 1.179688 -3.046875 1.078125 -3.050781 C 1.015625 -3.046875 0.957031 -3.027344 0.90625 -2.988281 C 0.855469 -2.945312 0.8125 -2.867188 0.777344 -2.757812 C 0.742188 -2.644531 0.722656 -2.460938 0.71875 -2.207031 Z M 0.71875 -2.207031 "/>
</g>
<g id="glyph-2-5">
<path d="M -0.703125 -4.445312 C -0.398438 -4.085938 -0.183594 -3.742188 -0.0585938 -3.414062 C 0.0664062 -3.082031 0.128906 -2.726562 0.128906 -2.347656 C 0.128906 -1.71875 -0.0234375 -1.238281 -0.328125 -0.902344 C -0.632812 -0.566406 -1.023438 -0.398438 -1.503906 -0.398438 C -1.78125 -0.398438 -2.035156 -0.460938 -2.269531 -0.585938 C -2.496094 -0.710938 -2.683594 -0.875 -2.824219 -1.085938 C -2.964844 -1.289062 -3.070312 -1.523438 -3.140625 -1.785156 C -3.191406 -1.96875 -3.238281 -2.253906 -3.289062 -2.640625 C -3.375 -3.417969 -3.488281 -3.992188 -3.621094 -4.367188 C -3.753906 -4.367188 -3.835938 -4.371094 -3.871094 -4.371094 C -4.265625 -4.371094 -4.542969 -4.277344 -4.703125 -4.097656 C -4.917969 -3.847656 -5.027344 -3.480469 -5.03125 -2.996094 C -5.027344 -2.539062 -4.949219 -2.203125 -4.792969 -1.988281 C -4.632812 -1.769531 -4.351562 -1.609375 -3.949219 -1.507812 L -4.078125 -0.5625 C -4.480469 -0.648438 -4.804688 -0.789062 -5.054688 -0.988281 C -5.300781 -1.183594 -5.492188 -1.46875 -5.628906 -1.84375 C -5.761719 -2.214844 -5.828125 -2.644531 -5.832031 -3.136719 C -5.828125 -3.621094 -5.773438 -4.019531 -5.660156 -4.324219 C -5.542969 -4.628906 -5.398438 -4.851562 -5.226562 -4.996094 C -5.054688 -5.136719 -4.835938 -5.238281 -4.570312 -5.296875 C -4.40625 -5.328125 -4.109375 -5.34375 -3.679688 -5.34375 L -2.390625 -5.34375 C -1.492188 -5.34375 -0.921875 -5.363281 -0.683594 -5.40625 C -0.445312 -5.445312 -0.21875 -5.527344 0 -5.648438 L 0 -4.640625 C -0.199219 -4.539062 -0.433594 -4.472656 -0.703125 -4.445312 Z M -2.863281 -4.367188 C -2.71875 -4.011719 -2.597656 -3.488281 -2.496094 -2.789062 C -2.4375 -2.390625 -2.371094 -2.109375 -2.300781 -1.945312 C -2.226562 -1.78125 -2.121094 -1.652344 -1.988281 -1.5625 C -1.847656 -1.472656 -1.695312 -1.429688 -1.53125 -1.429688 C -1.269531 -1.429688 -1.054688 -1.527344 -0.886719 -1.722656 C -0.710938 -1.917969 -0.625 -2.203125 -0.628906 -2.578125 C -0.625 -2.949219 -0.707031 -3.277344 -0.871094 -3.570312 C -1.03125 -3.859375 -1.253906 -4.074219 -1.542969 -4.210938 C -1.753906 -4.3125 -2.078125 -4.363281 -2.507812 -4.367188 Z M -6.546875 -1.230469 C -6.914062 -1.226562 -7.210938 -1.328125 -7.4375 -1.535156 C -7.65625 -1.738281 -7.769531 -2 -7.773438 -2.320312 C -7.769531 -2.539062 -7.671875 -2.839844 -7.480469 -3.226562 C -7.371094 -3.4375 -7.316406 -3.605469 -7.320312 -3.734375 C -7.316406 -3.84375 -7.347656 -3.933594 -7.414062 -3.996094 C -7.472656 -4.054688 -7.597656 -4.097656 -7.789062 -4.125 L -7.789062 -4.824219 C -7.375 -4.808594 -7.070312 -4.707031 -6.867188 -4.515625 C -6.664062 -4.316406 -6.5625 -4.066406 -6.5625 -3.769531 C -6.5625 -3.542969 -6.660156 -3.246094 -6.863281 -2.878906 C -6.988281 -2.636719 -7.054688 -2.460938 -7.058594 -2.351562 C -7.054688 -2.226562 -7.011719 -2.128906 -6.929688 -2.058594 C -6.839844 -1.972656 -6.710938 -1.9375 -6.546875 -1.945312 Z M -6.546875 -1.230469 "/>
</g>
<g id="glyph-2-6">
</g>
<g id="glyph-2-7">
<path d="M 0.132812 0 L -8.007812 -2.28125 L -8.007812 -3.054688 L 0.132812 -0.777344 Z M 0.132812 0 "/>
</g>
<g id="glyph-2-8">
<path d="M 0 -1.617188 L 0 -0.71875 L -7.875 -0.71875 L -7.875 -1.6875 L -5.066406 -1.6875 C -5.574219 -2.09375 -5.828125 -2.613281 -5.832031 -3.25 C -5.828125 -3.597656 -5.757812 -3.929688 -5.621094 -4.246094 C -5.476562 -4.554688 -5.277344 -4.8125 -5.023438 -5.019531 C -4.765625 -5.21875 -4.457031 -5.378906 -4.097656 -5.496094 C -3.730469 -5.609375 -3.34375 -5.664062 -2.9375 -5.667969 C -1.957031 -5.664062 -1.203125 -5.421875 -0.671875 -4.941406 C -0.136719 -4.453125 0.128906 -3.875 0.128906 -3.203125 C 0.128906 -2.527344 -0.152344 -2 -0.714844 -1.617188 Z M -2.894531 -1.605469 C -2.207031 -1.605469 -1.710938 -1.699219 -1.414062 -1.886719 C -0.910156 -2.191406 -0.660156 -2.601562 -0.664062 -3.121094 C -0.660156 -3.539062 -0.84375 -3.902344 -1.214844 -4.214844 C -1.578125 -4.519531 -2.125 -4.675781 -2.855469 -4.679688 C -3.597656 -4.675781 -4.148438 -4.527344 -4.503906 -4.234375 C -4.859375 -3.9375 -5.039062 -3.582031 -5.039062 -3.164062 C -5.039062 -2.742188 -4.855469 -2.375 -4.488281 -2.066406 C -4.121094 -1.757812 -3.589844 -1.605469 -2.894531 -1.605469 Z M -2.894531 -1.605469 "/>
</g>
<g id="glyph-2-9">
<path d="M -0.703125 -4.445312 C -0.398438 -4.085938 -0.183594 -3.742188 -0.0585938 -3.414062 C 0.0664062 -3.082031 0.128906 -2.726562 0.128906 -2.347656 C 0.128906 -1.71875 -0.0234375 -1.238281 -0.328125 -0.902344 C -0.632812 -0.566406 -1.023438 -0.398438 -1.503906 -0.398438 C -1.78125 -0.398438 -2.035156 -0.460938 -2.269531 -0.585938 C -2.496094 -0.710938 -2.683594 -0.875 -2.824219 -1.085938 C -2.964844 -1.289062 -3.070312 -1.523438 -3.140625 -1.785156 C -3.191406 -1.96875 -3.238281 -2.253906 -3.289062 -2.640625 C -3.375 -3.417969 -3.488281 -3.992188 -3.621094 -4.367188 C -3.753906 -4.367188 -3.835938 -4.371094 -3.871094 -4.371094 C -4.265625 -4.371094 -4.542969 -4.277344 -4.703125 -4.097656 C -4.917969 -3.847656 -5.027344 -3.480469 -5.03125 -2.996094 C -5.027344 -2.539062 -4.949219 -2.203125 -4.792969 -1.988281 C -4.632812 -1.769531 -4.351562 -1.609375 -3.949219 -1.507812 L -4.078125 -0.5625 C -4.480469 -0.648438 -4.804688 -0.789062 -5.054688 -0.988281 C -5.300781 -1.183594 -5.492188 -1.46875 -5.628906 -1.84375 C -5.761719 -2.214844 -5.828125 -2.644531 -5.832031 -3.136719 C -5.828125 -3.621094 -5.773438 -4.019531 -5.660156 -4.324219 C -5.542969 -4.628906 -5.398438 -4.851562 -5.226562 -4.996094 C -5.054688 -5.136719 -4.835938 -5.238281 -4.570312 -5.296875 C -4.40625 -5.328125 -4.109375 -5.34375 -3.679688 -5.34375 L -2.390625 -5.34375 C -1.492188 -5.34375 -0.921875 -5.363281 -0.683594 -5.40625 C -0.445312 -5.445312 -0.21875 -5.527344 0 -5.648438 L 0 -4.640625 C -0.199219 -4.539062 -0.433594 -4.472656 -0.703125 -4.445312 Z M -2.863281 -4.367188 C -2.71875 -4.011719 -2.597656 -3.488281 -2.496094 -2.789062 C -2.4375 -2.390625 -2.371094 -2.109375 -2.300781 -1.945312 C -2.226562 -1.78125 -2.121094 -1.652344 -1.988281 -1.5625 C -1.847656 -1.472656 -1.695312 -1.429688 -1.53125 -1.429688 C -1.269531 -1.429688 -1.054688 -1.527344 -0.886719 -1.722656 C -0.710938 -1.917969 -0.625 -2.203125 -0.628906 -2.578125 C -0.625 -2.949219 -0.707031 -3.277344 -0.871094 -3.570312 C -1.03125 -3.859375 -1.253906 -4.074219 -1.542969 -4.210938 C -1.753906 -4.3125 -2.078125 -4.363281 -2.507812 -4.367188 Z M -2.863281 -4.367188 "/>
</g>
<g id="glyph-2-10">
<path d="M -6.761719 -0.730469 L -7.875 -0.730469 L -7.875 -1.699219 L -6.761719 -1.699219 Z M 0 -0.730469 L -5.703125 -0.730469 L -5.703125 -1.699219 L 0 -1.695312 Z M 0 -0.730469 "/>
</g>
<g id="glyph-2-11">
<path d="M 0 -0.703125 L -7.875 -0.703125 L -7.875 -1.671875 L 0 -1.671875 Z M 0 -0.703125 "/>
</g>
<g id="glyph-2-12">
<path d="M 0 -4.425781 L -0.71875 -4.425781 C -0.152344 -4.058594 0.128906 -3.527344 0.128906 -2.832031 C 0.128906 -2.371094 0.00390625 -1.953125 -0.246094 -1.574219 C -0.496094 -1.191406 -0.84375 -0.894531 -1.296875 -0.6875 C -1.742188 -0.476562 -2.261719 -0.375 -2.847656 -0.375 C -3.414062 -0.375 -3.929688 -0.46875 -4.394531 -0.660156 C -4.859375 -0.847656 -5.214844 -1.132812 -5.460938 -1.515625 C -5.707031 -1.894531 -5.828125 -2.320312 -5.832031 -2.789062 C -5.828125 -3.132812 -5.757812 -3.4375 -5.613281 -3.707031 C -5.46875 -3.972656 -5.277344 -4.191406 -5.046875 -4.359375 L -7.875 -4.363281 L -7.875 -5.324219 L 0 -5.324219 Z M -2.847656 -1.371094 C -2.113281 -1.371094 -1.566406 -1.523438 -1.207031 -1.832031 C -0.84375 -2.136719 -0.660156 -2.5 -0.664062 -2.921875 C -0.660156 -3.339844 -0.835938 -3.699219 -1.183594 -3.996094 C -1.527344 -4.292969 -2.054688 -4.441406 -2.765625 -4.441406 C -3.546875 -4.441406 -4.117188 -4.289062 -4.484375 -3.988281 C -4.84375 -3.6875 -5.027344 -3.316406 -5.03125 -2.878906 C -5.027344 -2.445312 -4.851562 -2.085938 -4.503906 -1.800781 C -4.152344 -1.511719 -3.601562 -1.371094 -2.847656 -1.371094 Z M -2.847656 -1.371094 "/>
</g>
<g id="glyph-2-13">
<path d="M -1.835938 -4.628906 L -1.714844 -5.628906 C -1.125 -5.46875 -0.671875 -5.175781 -0.351562 -4.75 C -0.03125 -4.324219 0.128906 -3.78125 0.128906 -3.121094 C 0.128906 -2.28125 -0.125 -1.617188 -0.640625 -1.132812 C -1.152344 -0.640625 -1.875 -0.398438 -2.804688 -0.402344 C -3.761719 -0.398438 -4.503906 -0.644531 -5.035156 -1.144531 C -5.5625 -1.636719 -5.828125 -2.277344 -5.832031 -3.066406 C -5.828125 -3.824219 -5.570312 -4.449219 -5.050781 -4.933594 C -4.53125 -5.417969 -3.800781 -5.660156 -2.863281 -5.660156 C -2.804688 -5.660156 -2.71875 -5.65625 -2.605469 -5.65625 L -2.605469 -1.402344 C -1.976562 -1.433594 -1.496094 -1.613281 -1.164062 -1.933594 C -0.828125 -2.25 -0.660156 -2.644531 -0.664062 -3.125 C -0.660156 -3.476562 -0.753906 -3.78125 -0.941406 -4.03125 C -1.125 -4.28125 -1.421875 -4.480469 -1.835938 -4.628906 Z M -3.398438 -1.457031 L -3.398438 -4.640625 C -3.878906 -4.597656 -4.238281 -4.472656 -4.480469 -4.273438 C -4.851562 -3.960938 -5.039062 -3.5625 -5.039062 -3.078125 C -5.039062 -2.628906 -4.890625 -2.257812 -4.59375 -1.957031 C -4.296875 -1.652344 -3.898438 -1.484375 -3.398438 -1.457031 Z M -3.398438 -1.457031 "/>
</g>
<g id="glyph-2-14">
<path d="M 0 -0.726562 L -5.703125 -0.726562 L -5.703125 -1.589844 L -4.902344 -1.589844 C -5.179688 -1.765625 -5.40625 -2.003906 -5.578125 -2.304688 C -5.746094 -2.597656 -5.828125 -2.9375 -5.832031 -3.320312 C -5.828125 -3.738281 -5.742188 -4.085938 -5.566406 -4.359375 C -5.390625 -4.628906 -5.144531 -4.816406 -4.835938 -4.929688 C -5.496094 -5.378906 -5.828125 -5.96875 -5.832031 -6.691406 C -5.828125 -7.253906 -5.671875 -7.6875 -5.363281 -7.996094 C -5.046875 -8.296875 -4.566406 -8.449219 -3.914062 -8.453125 L 0 -8.453125 L 0 -7.492188 L -3.59375 -7.492188 C -3.976562 -7.488281 -4.253906 -7.457031 -4.425781 -7.398438 C -4.59375 -7.332031 -4.734375 -7.21875 -4.839844 -7.058594 C -4.941406 -6.890625 -4.992188 -6.695312 -4.996094 -6.476562 C -4.992188 -6.070312 -4.859375 -5.738281 -4.59375 -5.476562 C -4.328125 -5.210938 -3.898438 -5.078125 -3.3125 -5.082031 L 0 -5.082031 L 0 -4.113281 L -3.707031 -4.113281 C -4.132812 -4.113281 -4.453125 -4.03125 -4.671875 -3.875 C -4.882812 -3.714844 -4.992188 -3.460938 -4.996094 -3.105469 C -4.992188 -2.832031 -4.921875 -2.578125 -4.78125 -2.347656 C -4.636719 -2.117188 -4.425781 -1.949219 -4.152344 -1.847656 C -3.875 -1.738281 -3.476562 -1.6875 -2.960938 -1.691406 L 0 -1.691406 Z M 0 -0.726562 "/>
</g>
<g id="glyph-2-15">
<path d="M 0 -4.464844 L -0.835938 -4.464844 C -0.191406 -4.019531 0.128906 -3.414062 0.128906 -2.652344 C 0.128906 -2.3125 0.0664062 -2 -0.0625 -1.710938 C -0.191406 -1.417969 -0.355469 -1.199219 -0.550781 -1.058594 C -0.746094 -0.914062 -0.984375 -0.816406 -1.265625 -0.761719 C -1.453125 -0.722656 -1.753906 -0.703125 -2.171875 -0.703125 L -5.703125 -0.703125 L -5.703125 -1.671875 L -2.539062 -1.671875 C -2.03125 -1.667969 -1.691406 -1.6875 -1.519531 -1.730469 C -1.261719 -1.785156 -1.0625 -1.914062 -0.917969 -2.113281 C -0.773438 -2.308594 -0.703125 -2.554688 -0.703125 -2.847656 C -0.703125 -3.136719 -0.777344 -3.40625 -0.925781 -3.660156 C -1.074219 -3.914062 -1.273438 -4.09375 -1.53125 -4.199219 C -1.785156 -4.304688 -2.160156 -4.359375 -2.648438 -4.359375 L -5.703125 -4.359375 L -5.703125 -5.328125 L 0 -5.328125 Z M 0 -4.464844 "/>
</g>
</g>
<clipPath id="clip-0">
<path clip-rule="nonzero" d="M 40.46875 186 L 326.269531 186 L 326.269531 187 L 40.46875 187 Z M 40.46875 186 "/>
</clipPath>
<clipPath id="clip-1">
<path clip-rule="nonzero" d="M 40.46875 137 L 326.269531 137 L 326.269531 138 L 40.46875 138 Z M 40.46875 137 "/>
</clipPath>
<clipPath id="clip-2">
<path clip-rule="nonzero" d="M 40.46875 88 L 326.269531 88 L 326.269531 89 L 40.46875 89 Z M 40.46875 88 "/>
</clipPath>
<clipPath id="clip-3">
<path clip-rule="nonzero" d="M 40.46875 39 L 326.269531 39 L 326.269531 40 L 40.46875 40 Z M 40.46875 39 "/>
</clipPath>
<clipPath id="clip-4">
<path clip-rule="nonzero" d="M 89 5.480469 L 91 5.480469 L 91 220.511719 L 89 220.511719 Z M 89 5.480469 "/>
</clipPath>
<clipPath id="clip-5">
<path clip-rule="nonzero" d="M 183 5.480469 L 184 5.480469 L 184 220.511719 L 183 220.511719 Z M 183 5.480469 "/>
</clipPath>
<clipPath id="clip-6">
<path clip-rule="nonzero" d="M 276 5.480469 L 278 5.480469 L 278 220.511719 L 276 220.511719 Z M 276 5.480469 "/>
</clipPath>
<clipPath id="clip-7">
<path clip-rule="nonzero" d="M 40.46875 210 L 326.269531 210 L 326.269531 212 L 40.46875 212 Z M 40.46875 210 "/>
</clipPath>
<clipPath id="clip-8">
<path clip-rule="nonzero" d="M 40.46875 161 L 326.269531 161 L 326.269531 163 L 40.46875 163 Z M 40.46875 161 "/>
</clipPath>
<clipPath id="clip-9">
<path clip-rule="nonzero" d="M 40.46875 112 L 326.269531 112 L 326.269531 114 L 40.46875 114 Z M 40.46875 112 "/>
</clipPath>
<clipPath id="clip-10">
<path clip-rule="nonzero" d="M 40.46875 63 L 326.269531 63 L 326.269531 65 L 40.46875 65 Z M 40.46875 63 "/>
</clipPath>
<clipPath id="clip-11">
<path clip-rule="nonzero" d="M 40.46875 14 L 326.269531 14 L 326.269531 16 L 40.46875 16 Z M 40.46875 14 "/>
</clipPath>
<clipPath id="clip-12">
<path clip-rule="nonzero" d="M 42 5.480469 L 44 5.480469 L 44 220.511719 L 42 220.511719 Z M 42 5.480469 "/>
</clipPath>
<clipPath id="clip-13">
<path clip-rule="nonzero" d="M 136 5.480469 L 138 5.480469 L 138 220.511719 L 136 220.511719 Z M 136 5.480469 "/>
</clipPath>
<clipPath id="clip-14">
<path clip-rule="nonzero" d="M 229 5.480469 L 231 5.480469 L 231 220.511719 L 229 220.511719 Z M 229 5.480469 "/>
</clipPath>
<clipPath id="clip-15">
<path clip-rule="nonzero" d="M 323 5.480469 L 325 5.480469 L 325 220.511719 L 323 220.511719 Z M 323 5.480469 "/>
</clipPath>
<clipPath id="clip-16">
<path clip-rule="nonzero" d="M 126 5.480469 L 128 5.480469 L 128 220.511719 L 126 220.511719 Z M 126 5.480469 "/>
</clipPath>
</defs>
<rect x="-39.6" y="-25.2" width="475.2" height="302.4" fill="rgb(100%, 100%, 100%)" fill-opacity="1"/>
<rect x="-39.6" y="-25.2" width="475.2" height="302.4" fill="rgb(100%, 100%, 100%)" fill-opacity="1"/>
<g clip-path="url(#clip-0)">
<path fill="none" stroke-width="0.533489" stroke-linecap="butt" stroke-linejoin="round" stroke="rgb(92.156863%, 92.156863%, 92.156863%)" stroke-opacity="1" stroke-miterlimit="10" d="M 40.46875 186.300781 L 326.265625 186.300781 "/>
</g>
<g clip-path="url(#clip-1)">
<path fill="none" stroke-width="0.533489" stroke-linecap="butt" stroke-linejoin="round" stroke="rgb(92.156863%, 92.156863%, 92.156863%)" stroke-opacity="1" stroke-miterlimit="10" d="M 40.46875 137.429688 L 326.265625 137.429688 "/>
</g>
<g clip-path="url(#clip-2)">
<path fill="none" stroke-width="0.533489" stroke-linecap="butt" stroke-linejoin="round" stroke="rgb(92.156863%, 92.156863%, 92.156863%)" stroke-opacity="1" stroke-miterlimit="10" d="M 40.46875 88.558594 L 326.265625 88.558594 "/>
</g>
<g clip-path="url(#clip-3)">
<path fill="none" stroke-width="0.533489" stroke-linecap="butt" stroke-linejoin="round" stroke="rgb(92.156863%, 92.156863%, 92.156863%)" stroke-opacity="1" stroke-miterlimit="10" d="M 40.46875 39.6875 L 326.265625 39.6875 "/>
</g>
<g clip-path="url(#clip-4)">
<path fill="none" stroke-width="0.533489" stroke-linecap="butt" stroke-linejoin="round" stroke="rgb(92.156863%, 92.156863%, 92.156863%)" stroke-opacity="1" stroke-miterlimit="10" d="M 89.90625 220.507812 L 89.90625 5.480469 "/>
</g>
<g clip-path="url(#clip-5)">
<path fill="none" stroke-width="0.533489" stroke-linecap="butt" stroke-linejoin="round" stroke="rgb(92.156863%, 92.156863%, 92.156863%)" stroke-opacity="1" stroke-miterlimit="10" d="M 183.367188 220.507812 L 183.367188 5.480469 "/>
</g>
<g clip-path="url(#clip-6)">
<path fill="none" stroke-width="0.533489" stroke-linecap="butt" stroke-linejoin="round" stroke="rgb(92.156863%, 92.156863%, 92.156863%)" stroke-opacity="1" stroke-miterlimit="10" d="M 276.828125 220.507812 L 276.828125 5.480469 "/>
</g>
<g clip-path="url(#clip-7)">
<path fill="none" stroke-width="1.066978" stroke-linecap="butt" stroke-linejoin="round" stroke="rgb(92.156863%, 92.156863%, 92.156863%)" stroke-opacity="1" stroke-miterlimit="10" d="M 40.46875 210.734375 L 326.265625 210.734375 "/>
</g>
<g clip-path="url(#clip-8)">
<path fill="none" stroke-width="1.066978" stroke-linecap="butt" stroke-linejoin="round" stroke="rgb(92.156863%, 92.156863%, 92.156863%)" stroke-opacity="1" stroke-miterlimit="10" d="M 40.46875 161.863281 L 326.265625 161.863281 "/>
</g>
<g clip-path="url(#clip-9)">
<path fill="none" stroke-width="1.066978" stroke-linecap="butt" stroke-linejoin="round" stroke="rgb(92.156863%, 92.156863%, 92.156863%)" stroke-opacity="1" stroke-miterlimit="10" d="M 40.46875 112.996094 L 326.265625 112.996094 "/>
</g>
<g clip-path="url(#clip-10)">
<path fill="none" stroke-width="1.066978" stroke-linecap="butt" stroke-linejoin="round" stroke="rgb(92.156863%, 92.156863%, 92.156863%)" stroke-opacity="1" stroke-miterlimit="10" d="M 40.46875 64.125 L 326.265625 64.125 "/>
</g>
<g clip-path="url(#clip-11)">
<path fill="none" stroke-width="1.066978" stroke-linecap="butt" stroke-linejoin="round" stroke="rgb(92.156863%, 92.156863%, 92.156863%)" stroke-opacity="1" stroke-miterlimit="10" d="M 40.46875 15.253906 L 326.265625 15.253906 "/>
</g>
<g clip-path="url(#clip-12)">
<path fill="none" stroke-width="1.066978" stroke-linecap="butt" stroke-linejoin="round" stroke="rgb(92.156863%, 92.156863%, 92.156863%)" stroke-opacity="1" stroke-miterlimit="10" d="M 43.175781 220.507812 L 43.175781 5.480469 "/>
</g>
<g clip-path="url(#clip-13)">
<path fill="none" stroke-width="1.066978" stroke-linecap="butt" stroke-linejoin="round" stroke="rgb(92.156863%, 92.156863%, 92.156863%)" stroke-opacity="1" stroke-miterlimit="10" d="M 136.636719 220.507812 L 136.636719 5.480469 "/>
</g>
<g clip-path="url(#clip-14)">
<path fill="none" stroke-width="1.066978" stroke-linecap="butt" stroke-linejoin="round" stroke="rgb(92.156863%, 92.156863%, 92.156863%)" stroke-opacity="1" stroke-miterlimit="10" d="M 230.097656 220.507812 L 230.097656 5.480469 "/>
</g>
<g clip-path="url(#clip-15)">
<path fill="none" stroke-width="1.066978" stroke-linecap="butt" stroke-linejoin="round" stroke="rgb(92.156863%, 92.156863%, 92.156863%)" stroke-opacity="1" stroke-miterlimit="10" d="M 323.554688 220.507812 L 323.554688 5.480469 "/>
</g>
<path fill-rule="nonzero" fill="rgb(38.431373%, 71.372549%, 71.764706%)" fill-opacity="1" stroke-width="0.708661" stroke-linecap="round" stroke-linejoin="round" stroke="rgb(38.431373%, 71.372549%, 71.764706%)" stroke-opacity="1" stroke-miterlimit="10" d="M 54.878906 210.734375 C 54.878906 212.628906 52.035156 212.628906 52.035156 210.734375 C 52.035156 208.839844 54.878906 208.839844 54.878906 210.734375 "/>
<path fill-rule="nonzero" fill="rgb(38.431373%, 71.372549%, 71.764706%)" fill-opacity="1" stroke-width="0.708661" stroke-linecap="round" stroke-linejoin="round" stroke="rgb(38.431373%, 71.372549%, 71.764706%)" stroke-opacity="1" stroke-miterlimit="10" d="M 67.054688 192.964844 C 67.054688 195.175781 63.734375 195.175781 63.734375 192.964844 C 63.734375 190.753906 67.054688 190.753906 67.054688 192.964844 "/>
<path fill-rule="nonzero" fill="rgb(38.431373%, 71.372549%, 71.764706%)" fill-opacity="1" stroke-width="0.708661" stroke-linecap="round" stroke-linejoin="round" stroke="rgb(38.431373%, 71.372549%, 71.764706%)" stroke-opacity="1" stroke-miterlimit="10" d="M 80.566406 203.964844 C 80.566406 207.378906 75.441406 207.378906 75.441406 203.964844 C 75.441406 200.550781 80.566406 200.550781 80.566406 203.964844 "/>
<path fill-rule="nonzero" fill="rgb(38.431373%, 71.372549%, 71.764706%)" fill-opacity="1" stroke-width="0.708661" stroke-linecap="round" stroke-linejoin="round" stroke="rgb(38.431373%, 71.372549%, 71.764706%)" stroke-opacity="1" stroke-miterlimit="10" d="M 93.765625 194.851562 C 93.765625 199.203125 87.234375 199.203125 87.234375 194.851562 C 87.234375 190.496094 93.765625 190.496094 93.765625 194.851562 "/>
<path fill-rule="nonzero" fill="rgb(38.431373%, 71.372549%, 71.764706%)" fill-opacity="1" stroke-width="0.708661" stroke-linecap="round" stroke-linejoin="round" stroke="rgb(38.431373%, 71.372549%, 71.764706%)" stroke-opacity="1" stroke-miterlimit="10" d="M 110.132812 160.632812 C 110.132812 166.363281 101.535156 166.363281 101.535156 160.632812 C 101.535156 154.898438 110.132812 154.898438 110.132812 160.632812 "/>
<path fill-rule="nonzero" fill="rgb(38.431373%, 71.372549%, 71.764706%)" fill-opacity="1" stroke-width="0.708661" stroke-linecap="round" stroke-linejoin="round" stroke="rgb(38.431373%, 71.372549%, 71.764706%)" stroke-opacity="1" stroke-miterlimit="10" d="M 124.742188 132.652344 C 124.742188 136.03125 122.003906 138.769531 118.625 138.769531 C 115.25 138.769531 112.511719 136.03125 112.511719 132.652344 C 112.511719 129.273438 115.25 126.535156 118.625 126.535156 C 122.003906 126.535156 124.742188 129.273438 124.742188 132.652344 "/>
<path fill-rule="nonzero" fill="rgb(38.431373%, 71.372549%, 71.764706%)" fill-opacity="1" stroke-width="0.708661" stroke-linecap="round" stroke-linejoin="round" stroke="rgb(38.431373%, 71.372549%, 71.764706%)" stroke-opacity="1" stroke-miterlimit="10" d="M 137.644531 94.410156 C 137.644531 97.601562 135.054688 100.191406 131.859375 100.191406 C 128.667969 100.191406 126.078125 97.601562 126.078125 94.410156 C 126.078125 91.214844 128.667969 88.625 131.859375 88.625 C 135.054688 88.625 137.644531 91.214844 137.644531 94.410156 "/>
<path fill-rule="nonzero" fill="rgb(38.431373%, 71.372549%, 71.764706%)" fill-opacity="1" stroke-width="0.708661" stroke-linecap="round" stroke-linejoin="round" stroke="rgb(38.431373%, 71.372549%, 71.764706%)" stroke-opacity="1" stroke-miterlimit="10" d="M 152.84375 57.101562 C 152.84375 60.421875 150.148438 63.117188 146.828125 63.117188 C 143.503906 63.117188 140.8125 60.421875 140.8125 57.101562 C 140.8125 53.777344 143.503906 51.085938 146.828125 51.085938 C 150.148438 51.085938 152.84375 53.777344 152.84375 57.101562 "/>
<path fill-rule="nonzero" fill="rgb(38.431373%, 71.372549%, 71.764706%)" fill-opacity="1" stroke-width="0.708661" stroke-linecap="round" stroke-linejoin="round" stroke="rgb(38.431373%, 71.372549%, 71.764706%)" stroke-opacity="1" stroke-miterlimit="10" d="M 167.101562 59.90625 C 167.101562 63.636719 164.078125 66.660156 160.347656 66.660156 C 156.617188 66.660156 153.589844 63.636719 153.589844 59.90625 C 153.589844 56.171875 156.617188 53.148438 160.347656 53.148438 C 164.078125 53.148438 167.101562 56.171875 167.101562 59.90625 "/>
<path fill-rule="nonzero" fill="rgb(38.431373%, 71.372549%, 71.764706%)" fill-opacity="1" stroke-width="0.708661" stroke-linecap="round" stroke-linejoin="round" stroke="rgb(38.431373%, 71.372549%, 71.764706%)" stroke-opacity="1" stroke-miterlimit="10" d="M 180.648438 47.449219 C 180.648438 51.074219 177.710938 54.015625 174.085938 54.015625 C 170.460938 54.015625 167.523438 51.074219 167.523438 47.449219 C 167.523438 43.828125 170.460938 40.886719 174.085938 40.886719 C 177.710938 40.886719 180.648438 43.828125 180.648438 47.449219 "/>
<path fill-rule="nonzero" fill="rgb(38.431373%, 71.372549%, 71.764706%)" fill-opacity="1" stroke-width="0.708661" stroke-linecap="round" stroke-linejoin="round" stroke="rgb(38.431373%, 71.372549%, 71.764706%)" stroke-opacity="1" stroke-miterlimit="10" d="M 194.160156 23.015625 C 194.160156 26.375 191.4375 29.101562 188.074219 29.101562 C 184.710938 29.101562 181.988281 26.375 181.988281 23.015625 C 181.988281 19.652344 184.710938 16.925781 188.074219 16.925781 C 191.4375 16.925781 194.160156 19.652344 194.160156 23.015625 "/>
<path fill-rule="nonzero" fill="rgb(38.431373%, 71.372549%, 71.764706%)" fill-opacity="1" stroke-width="0.708661" stroke-linecap="round" stroke-linejoin="round" stroke="rgb(38.431373%, 71.372549%, 71.764706%)" stroke-opacity="1" stroke-miterlimit="10" d="M 207.285156 16.78125 C 207.285156 19.867188 204.785156 22.367188 201.699219 22.367188 C 198.617188 22.367188 196.113281 19.867188 196.113281 16.78125 C 196.113281 13.695312 198.617188 11.195312 201.699219 11.195312 C 204.785156 11.195312 207.285156 13.695312 207.285156 16.78125 "/>
<path fill-rule="nonzero" fill="rgb(38.431373%, 71.372549%, 71.764706%)" fill-opacity="1" stroke-width="0.708661" stroke-linecap="round" stroke-linejoin="round" stroke="rgb(38.431373%, 71.372549%, 71.764706%)" stroke-opacity="1" stroke-miterlimit="10" d="M 220.203125 15.808594 C 220.203125 21.910156 211.050781 21.910156 211.050781 15.808594 C 211.050781 9.707031 220.203125 9.707031 220.203125 15.808594 "/>
<path fill-rule="nonzero" fill="rgb(38.431373%, 71.372549%, 71.764706%)" fill-opacity="1" stroke-width="0.708661" stroke-linecap="round" stroke-linejoin="round" stroke="rgb(38.431373%, 71.372549%, 71.764706%)" stroke-opacity="1" stroke-miterlimit="10" d="M 233.359375 15.46875 C 233.359375 20.390625 225.976562 20.390625 225.976562 15.46875 C 225.976562 10.546875 233.359375 10.546875 233.359375 15.46875 "/>
<path fill-rule="nonzero" fill="rgb(38.431373%, 71.372549%, 71.764706%)" fill-opacity="1" stroke-width="0.708661" stroke-linecap="round" stroke-linejoin="round" stroke="rgb(38.431373%, 71.372549%, 71.764706%)" stroke-opacity="1" stroke-miterlimit="10" d="M 247.152344 15.957031 C 247.152344 20.210938 240.769531 20.210938 240.769531 15.957031 C 240.769531 11.699219 247.152344 11.699219 247.152344 15.957031 "/>
<path fill-rule="nonzero" fill="rgb(38.431373%, 71.372549%, 71.764706%)" fill-opacity="1" stroke-width="0.708661" stroke-linecap="round" stroke-linejoin="round" stroke="rgb(38.431373%, 71.372549%, 71.764706%)" stroke-opacity="1" stroke-miterlimit="10" d="M 260.03125 15.839844 C 260.03125 19.5625 254.449219 19.5625 254.449219 15.839844 C 254.449219 12.121094 260.03125 12.121094 260.03125 15.839844 "/>
<path fill-rule="nonzero" fill="rgb(38.431373%, 71.372549%, 71.764706%)" fill-opacity="1" stroke-width="0.708661" stroke-linecap="round" stroke-linejoin="round" stroke="rgb(38.431373%, 71.372549%, 71.764706%)" stroke-opacity="1" stroke-miterlimit="10" d="M 273.980469 15.253906 C 273.980469 18.351562 269.335938 18.351562 269.335938 15.253906 C 269.335938 12.15625 273.980469 12.15625 273.980469 15.253906 "/>
<path fill-rule="nonzero" fill="rgb(38.431373%, 71.372549%, 71.764706%)" fill-opacity="1" stroke-width="0.708661" stroke-linecap="round" stroke-linejoin="round" stroke="rgb(38.431373%, 71.372549%, 71.764706%)" stroke-opacity="1" stroke-miterlimit="10" d="M 286.828125 15.253906 C 286.828125 17.789062 283.023438 17.789062 283.023438 15.253906 C 283.023438 12.714844 286.828125 12.714844 286.828125 15.253906 "/>
<path fill-rule="nonzero" fill="rgb(38.431373%, 71.372549%, 71.764706%)" fill-opacity="1" stroke-width="0.708661" stroke-linecap="round" stroke-linejoin="round" stroke="rgb(38.431373%, 71.372549%, 71.764706%)" stroke-opacity="1" stroke-miterlimit="10" d="M 300.34375 15.253906 C 300.34375 17.480469 297.003906 17.480469 297.003906 15.253906 C 297.003906 13.027344 300.34375 13.027344 300.34375 15.253906 "/>
<path fill-rule="nonzero" fill="rgb(38.431373%, 71.372549%, 71.764706%)" fill-opacity="1" stroke-width="0.708661" stroke-linecap="round" stroke-linejoin="round" stroke="rgb(38.431373%, 71.372549%, 71.764706%)" stroke-opacity="1" stroke-miterlimit="10" d="M 314.695312 15.253906 C 314.695312 17.148438 311.855469 17.148438 311.855469 15.253906 C 311.855469 13.359375 314.695312 13.359375 314.695312 15.253906 "/>
<path fill="none" stroke-width="2.774144" stroke-linecap="butt" stroke-linejoin="round" stroke="rgb(90.588235%, 43.529412%, 31.764706%)" stroke-opacity="1" stroke-miterlimit="10" d="M 53.457031 204.589844 L 54.761719 204.21875 L 56.070312 203.828125 L 57.375 203.414062 L 58.679688 202.972656 L 59.984375 202.511719 L 61.292969 202.019531 L 62.597656 201.5 L 63.902344 200.953125 L 65.207031 200.375 L 66.515625 199.765625 L 67.820312 199.121094 L 69.125 198.445312 L 70.429688 197.726562 L 71.738281 196.972656 L 73.042969 196.179688 L 74.347656 195.34375 L 75.652344 194.460938 L 76.960938 193.535156 L 78.265625 192.5625 L 79.570312 191.539062 L 80.875 190.46875 L 82.179688 189.339844 L 83.488281 188.160156 L 84.792969 186.921875 L 86.097656 185.628906 L 87.402344 184.273438 L 88.710938 182.859375 L 90.015625 181.382812 L 91.320312 179.839844 L 92.625 178.230469 L 93.933594 176.558594 L 95.238281 174.820312 L 96.542969 173.011719 L 97.847656 171.132812 L 99.15625 169.1875 L 100.460938 167.171875 L 101.765625 165.089844 L 103.070312 162.9375 L 104.378906 160.71875 L 105.683594 158.433594 L 106.988281 156.082031 L 108.292969 153.667969 L 109.597656 151.195312 L 110.90625 148.660156 L 112.210938 146.066406 L 113.515625 143.421875 L 114.820312 140.726562 L 116.128906 137.984375 L 117.433594 135.199219 L 118.738281 132.375 L 120.042969 129.515625 L 121.351562 126.628906 L 122.65625 123.71875 L 123.960938 120.789062 L 125.265625 117.84375 L 126.574219 114.890625 L 129.183594 108.976562 L 130.488281 106.027344 L 131.796875 103.09375 L 133.101562 100.175781 L 134.40625 97.28125 L 135.710938 94.414062 L 137.015625 91.582031 L 138.324219 88.785156 L 139.628906 86.03125 L 140.933594 83.320312 L 142.238281 80.660156 L 143.546875 78.054688 L 144.851562 75.503906 L 146.15625 73.011719 L 147.460938 70.578125 L 148.769531 68.210938 L 150.074219 65.90625 L 151.378906 63.667969 L 152.683594 61.496094 L 153.992188 59.394531 L 155.296875 57.359375 L 156.601562 55.394531 L 157.90625 53.5 L 159.214844 51.671875 L 160.519531 49.914062 L 161.824219 48.21875 L 163.128906 46.59375 L 164.433594 45.035156 L 165.742188 43.539062 L 167.046875 42.105469 L 168.351562 40.734375 L 169.65625 39.421875 L 170.964844 38.171875 L 172.269531 36.972656 L 173.574219 35.832031 L 174.878906 34.746094 L 176.1875 33.707031 L 177.492188 32.722656 L 178.796875 31.78125 L 180.101562 30.890625 L 181.410156 30.039062 L 182.714844 29.234375 L 184.019531 28.46875 L 185.324219 27.742188 L 186.632812 27.054688 L 187.9375 26.398438 L 189.242188 25.78125 L 190.546875 25.195312 L 191.851562 24.636719 L 193.160156 24.113281 L 194.464844 23.613281 L 195.769531 23.144531 L 197.074219 22.695312 L 198.382812 22.277344 L 199.6875 21.878906 L 200.992188 21.5 L 202.296875 21.144531 L 203.605469 20.808594 L 204.910156 20.492188 L 206.214844 20.191406 L 207.519531 19.910156 L 208.828125 19.640625 L 210.132812 19.390625 L 211.4375 19.152344 L 212.742188 18.925781 L 214.050781 18.714844 L 215.355469 18.515625 L 216.660156 18.324219 L 217.964844 18.148438 L 219.269531 17.980469 L 220.578125 17.824219 L 221.882812 17.671875 L 223.1875 17.535156 L 224.492188 17.402344 L 225.800781 17.277344 L 227.105469 17.160156 L 228.410156 17.046875 L 229.714844 16.941406 L 231.023438 16.84375 L 233.632812 16.664062 L 234.9375 16.582031 L 236.246094 16.503906 L 238.855469 16.363281 L 240.160156 16.296875 L 241.46875 16.238281 L 242.773438 16.179688 L 244.078125 16.125 L 245.382812 16.074219 L 246.6875 16.027344 L 247.996094 15.980469 L 249.300781 15.9375 L 251.910156 15.859375 L 253.21875 15.824219 L 257.132812 15.730469 L 258.441406 15.703125 L 259.746094 15.675781 L 262.355469 15.628906 L 263.664062 15.605469 L 267.578125 15.546875 L 268.886719 15.53125 L 272.800781 15.484375 L 274.105469 15.472656 L 275.414062 15.457031 L 278.023438 15.433594 L 279.328125 15.425781 L 280.636719 15.414062 L 281.941406 15.40625 L 283.246094 15.394531 L 284.550781 15.386719 L 285.859375 15.378906 L 287.164062 15.371094 L 288.46875 15.367188 L 289.773438 15.359375 L 291.082031 15.351562 L 292.386719 15.347656 L 293.691406 15.339844 L 294.996094 15.335938 L 296.304688 15.332031 L 301.523438 15.316406 L 302.832031 15.3125 L 306.746094 15.300781 L 308.054688 15.296875 L 309.359375 15.296875 L 310.664062 15.292969 L 311.96875 15.292969 L 313.277344 15.289062 "/>
<g clip-path="url(#clip-16)">
<path fill="none" stroke-width="1.066978" stroke-linecap="butt" stroke-linejoin="round" stroke="rgb(90.980392%, 60.784314%, 23.529412%)" stroke-opacity="1" stroke-dasharray="4.267913 4.267913" stroke-miterlimit="10" d="M 127.410156 220.507812 L 127.410156 5.480469 "/>
</g>
<g fill="rgb(5.882353%, 23.137255%, 37.254902%)" fill-opacity="1">
<use xlink:href="#glyph-0-0" x="134.472656" y="195.125"/>
<use xlink:href="#glyph-0-1" x="140.590332" y="195.125"/>
<use xlink:href="#glyph-0-2" x="146.708008" y="195.125"/>
<use xlink:href="#glyph-0-3" x="152.825684" y="195.125"/>
<use xlink:href="#glyph-0-4" x="155.881836" y="195.125"/>
<use xlink:href="#glyph-0-3" x="162.305664" y="195.125"/>
<use xlink:href="#glyph-0-5" x="165.361816" y="195.125"/>
<use xlink:href="#glyph-0-6" x="171.479492" y="195.125"/>
<use xlink:href="#glyph-0-2" x="177.597168" y="195.125"/>
<use xlink:href="#glyph-0-3" x="183.714844" y="195.125"/>
<use xlink:href="#glyph-0-7" x="186.770996" y="195.125"/>
<use xlink:href="#glyph-0-7" x="195.934082" y="195.125"/>
</g>
<g fill="rgb(30.196078%, 30.196078%, 30.196078%)" fill-opacity="1">
<use xlink:href="#glyph-1-0" x="18.40625" y="213.882812"/>
<use xlink:href="#glyph-1-1" x="23.300391" y="213.882812"/>
<use xlink:href="#glyph-1-0" x="25.745312" y="213.882812"/>
<use xlink:href="#glyph-1-0" x="30.639453" y="213.882812"/>
</g>
<g fill="rgb(30.196078%, 30.196078%, 30.196078%)" fill-opacity="1">
<use xlink:href="#glyph-1-0" x="18.40625" y="165.015625"/>
<use xlink:href="#glyph-1-1" x="23.300391" y="165.015625"/>
<use xlink:href="#glyph-1-2" x="25.745312" y="165.015625"/>
<use xlink:href="#glyph-1-3" x="30.639453" y="165.015625"/>
</g>
<g fill="rgb(30.196078%, 30.196078%, 30.196078%)" fill-opacity="1">
<use xlink:href="#glyph-1-0" x="18.40625" y="116.144531"/>
<use xlink:href="#glyph-1-1" x="23.300391" y="116.144531"/>
<use xlink:href="#glyph-1-3" x="25.745312" y="116.144531"/>
<use xlink:href="#glyph-1-0" x="30.639453" y="116.144531"/>
</g>
<g fill="rgb(30.196078%, 30.196078%, 30.196078%)" fill-opacity="1">
<use xlink:href="#glyph-1-0" x="18.40625" y="67.273438"/>
<use xlink:href="#glyph-1-1" x="23.300391" y="67.273438"/>
<use xlink:href="#glyph-1-4" x="25.745312" y="67.273438"/>
<use xlink:href="#glyph-1-3" x="30.639453" y="67.273438"/>
</g>
<g fill="rgb(30.196078%, 30.196078%, 30.196078%)" fill-opacity="1">
<use xlink:href="#glyph-1-5" x="18.40625" y="18.402344"/>
<use xlink:href="#glyph-1-1" x="23.300391" y="18.402344"/>
<use xlink:href="#glyph-1-0" x="25.745312" y="18.402344"/>
<use xlink:href="#glyph-1-0" x="30.639453" y="18.402344"/>
</g>
<g fill="rgb(30.196078%, 30.196078%, 30.196078%)" fill-opacity="1">
<use xlink:href="#glyph-1-2" x="35.835938" y="231.738281"/>
<use xlink:href="#glyph-1-0" x="40.730078" y="231.738281"/>
<use xlink:href="#glyph-1-0" x="45.624219" y="231.738281"/>
</g>
<g fill="rgb(30.196078%, 30.196078%, 30.196078%)" fill-opacity="1">
<use xlink:href="#glyph-1-6" x="129.296875" y="231.738281"/>
<use xlink:href="#glyph-1-0" x="134.191016" y="231.738281"/>
<use xlink:href="#glyph-1-0" x="139.085156" y="231.738281"/>
</g>
<g fill="rgb(30.196078%, 30.196078%, 30.196078%)" fill-opacity="1">
<use xlink:href="#glyph-1-7" x="222.757812" y="231.738281"/>
<use xlink:href="#glyph-1-0" x="227.651953" y="231.738281"/>
<use xlink:href="#glyph-1-0" x="232.546094" y="231.738281"/>
</g>
<g fill="rgb(30.196078%, 30.196078%, 30.196078%)" fill-opacity="1">
<use xlink:href="#glyph-1-8" x="316.214844" y="231.738281"/>
<use xlink:href="#glyph-1-0" x="321.108984" y="231.738281"/>
<use xlink:href="#glyph-1-0" x="326.003125" y="231.738281"/>
</g>
<g fill="rgb(0%, 0%, 0%)" fill-opacity="1">
<use xlink:href="#glyph-0-8" x="124.078125" y="244.207031"/>
<use xlink:href="#glyph-0-9" x="132.021973" y="244.207031"/>
<use xlink:href="#glyph-0-7" x="138.139648" y="244.207031"/>
<use xlink:href="#glyph-0-10" x="147.302734" y="244.207031"/>
<use xlink:href="#glyph-0-11" x="153.42041" y="244.207031"/>
<use xlink:href="#glyph-0-12" x="157.083496" y="244.207031"/>
<use xlink:href="#glyph-0-7" x="159.527344" y="244.207031"/>
<use xlink:href="#glyph-0-13" x="168.69043" y="244.207031"/>
<use xlink:href="#glyph-0-14" x="174.808105" y="244.207031"/>
<use xlink:href="#glyph-0-15" x="180.925781" y="244.207031"/>
<use xlink:href="#glyph-0-9" x="183.981934" y="244.207031"/>
<use xlink:href="#glyph-0-3" x="190.099609" y="244.207031"/>
<use xlink:href="#glyph-0-15" x="193.155762" y="244.207031"/>
<use xlink:href="#glyph-0-9" x="196.211914" y="244.207031"/>
<use xlink:href="#glyph-0-15" x="202.32959" y="244.207031"/>
<use xlink:href="#glyph-0-16" x="205.385742" y="244.207031"/>
<use xlink:href="#glyph-0-17" x="211.503418" y="244.207031"/>
<use xlink:href="#glyph-0-3" x="213.947266" y="244.207031"/>
<use xlink:href="#glyph-0-18" x="217.003418" y="244.207031"/>
<use xlink:href="#glyph-0-7" x="220.666504" y="244.207031"/>
<use xlink:href="#glyph-0-7" x="229.82959" y="244.207031"/>
<use xlink:href="#glyph-0-19" x="238.992676" y="244.207031"/>
</g>
<g fill="rgb(0%, 0%, 0%)" fill-opacity="1">
<use xlink:href="#glyph-2-0" x="13.351562" y="203.804688"/>
<use xlink:href="#glyph-2-1" x="13.351562" y="196.467773"/>
<use xlink:href="#glyph-2-2" x="13.351562" y="192.804688"/>
<use xlink:href="#glyph-2-3" x="13.351563" y="186.687012"/>
<use xlink:href="#glyph-2-2" x="13.351563" y="180.569336"/>
<use xlink:href="#glyph-2-1" x="13.351563" y="174.45166"/>
<use xlink:href="#glyph-2-4" x="13.351563" y="170.788574"/>
<use xlink:href="#glyph-2-5" x="13.351563" y="165.288574"/>
<use xlink:href="#glyph-2-2" x="13.351563" y="159.170898"/>
<use xlink:href="#glyph-2-6" x="13.351563" y="153.053223"/>
<use xlink:href="#glyph-2-7" x="13.351563" y="149.99707"/>
<use xlink:href="#glyph-2-6" x="13.351563" y="146.940918"/>
<use xlink:href="#glyph-2-3" x="13.351563" y="143.884766"/>
<use xlink:href="#glyph-2-1" x="13.351563" y="137.76709"/>
<use xlink:href="#glyph-2-2" x="13.351563" y="134.104004"/>
<use xlink:href="#glyph-2-8" x="13.351563" y="127.986328"/>
<use xlink:href="#glyph-2-9" x="13.351563" y="121.868652"/>
<use xlink:href="#glyph-2-8" x="13.351563" y="115.750977"/>
<use xlink:href="#glyph-2-10" x="13.351563" y="109.633301"/>
<use xlink:href="#glyph-2-11" x="13.351563" y="107.189453"/>
<use xlink:href="#glyph-2-10" x="13.351563" y="104.745605"/>
<use xlink:href="#glyph-2-12" x="13.351563" y="102.301758"/>
<use xlink:href="#glyph-2-9" x="13.351563" y="96.184082"/>
<use xlink:href="#glyph-2-12" x="13.351563" y="90.066406"/>
<use xlink:href="#glyph-2-13" x="13.351563" y="83.94873"/>
<use xlink:href="#glyph-2-6" x="13.351563" y="77.831055"/>
<use xlink:href="#glyph-2-12" x="13.351563" y="74.774902"/>
<use xlink:href="#glyph-2-13" x="13.351563" y="68.657227"/>
<use xlink:href="#glyph-2-6" x="13.351563" y="62.539551"/>
<use xlink:href="#glyph-2-14" x="13.351563" y="59.483398"/>
<use xlink:href="#glyph-2-9" x="13.351563" y="50.320312"/>
<use xlink:href="#glyph-2-12" x="13.351563" y="44.202637"/>
<use xlink:href="#glyph-2-15" x="13.351563" y="38.084961"/>
<use xlink:href="#glyph-2-1" x="13.351563" y="31.967285"/>
<use xlink:href="#glyph-2-2" x="13.351563" y="28.304199"/>
</g>
<g fill="rgb(0%, 0%, 0%)" fill-opacity="1">
<use xlink:href="#glyph-0-14" x="342.707031" y="70.992188"/>
</g>
<path fill-rule="nonzero" fill="rgb(38.431373%, 71.372549%, 71.764706%)" fill-opacity="1" stroke-width="0.708661" stroke-linecap="round" stroke-linejoin="round" stroke="rgb(38.431373%, 71.372549%, 71.764706%)" stroke-opacity="1" stroke-miterlimit="10" d="M 355.140625 86.269531 C 355.140625 91.332031 347.546875 91.332031 347.546875 86.269531 C 347.546875 81.207031 355.140625 81.207031 355.140625 86.269531 "/>
<path fill-rule="nonzero" fill="rgb(38.431373%, 71.372549%, 71.764706%)" fill-opacity="1" stroke-width="0.708661" stroke-linecap="round" stroke-linejoin="round" stroke="rgb(38.431373%, 71.372549%, 71.764706%)" stroke-opacity="1" stroke-miterlimit="10" d="M 356.125 103.546875 C 356.125 109.925781 346.5625 109.925781 346.5625 103.546875 C 346.5625 97.171875 356.125 97.171875 356.125 103.546875 "/>
<path fill-rule="nonzero" fill="rgb(38.431373%, 71.372549%, 71.764706%)" fill-opacity="1" stroke-width="0.708661" stroke-linecap="round" stroke-linejoin="round" stroke="rgb(38.431373%, 71.372549%, 71.764706%)" stroke-opacity="1" stroke-miterlimit="10" d="M 356.882812 120.828125 C 356.882812 123.886719 354.402344 126.367188 351.34375 126.367188 C 348.285156 126.367188 345.808594 123.886719 345.808594 120.828125 C 345.808594 117.769531 348.285156 115.292969 351.34375 115.292969 C 354.402344 115.292969 356.882812 117.769531 356.882812 120.828125 "/>
<path fill-rule="nonzero" fill="rgb(38.431373%, 71.372549%, 71.764706%)" fill-opacity="1" stroke-width="0.708661" stroke-linecap="round" stroke-linejoin="round" stroke="rgb(38.431373%, 71.372549%, 71.764706%)" stroke-opacity="1" stroke-miterlimit="10" d="M 357.519531 138.109375 C 357.519531 141.519531 354.753906 144.28125 351.34375 144.28125 C 347.933594 144.28125 345.171875 141.519531 345.171875 138.109375 C 345.171875 134.699219 347.933594 131.933594 351.34375 131.933594 C 354.753906 131.933594 357.519531 134.699219 357.519531 138.109375 "/>
<path fill-rule="nonzero" fill="rgb(38.431373%, 71.372549%, 71.764706%)" fill-opacity="1" stroke-width="0.708661" stroke-linecap="round" stroke-linejoin="round" stroke="rgb(38.431373%, 71.372549%, 71.764706%)" stroke-opacity="1" stroke-miterlimit="10" d="M 358.082031 155.386719 C 358.082031 159.109375 355.066406 162.125 351.34375 162.125 C 347.625 162.125 344.609375 159.109375 344.609375 155.386719 C 344.609375 151.667969 347.625 148.652344 351.34375 148.652344 C 355.066406 148.652344 358.082031 151.667969 358.082031 155.386719 "/>
<g fill="rgb(0%, 0%, 0%)" fill-opacity="1">
<use xlink:href="#glyph-1-5" x="365.464844" y="89.417969"/>
<use xlink:href="#glyph-1-0" x="370.358984" y="89.417969"/>
<use xlink:href="#glyph-1-0" x="375.253125" y="89.417969"/>
<use xlink:href="#glyph-1-0" x="380.147266" y="89.417969"/>
</g>
<g fill="rgb(0%, 0%, 0%)" fill-opacity="1">
<use xlink:href="#glyph-1-2" x="365.464844" y="106.699219"/>
<use xlink:href="#glyph-1-0" x="370.358984" y="106.699219"/>
<use xlink:href="#glyph-1-0" x="375.253125" y="106.699219"/>
<use xlink:href="#glyph-1-0" x="380.147266" y="106.699219"/>
</g>
<g fill="rgb(0%, 0%, 0%)" fill-opacity="1">
<use xlink:href="#glyph-1-9" x="365.464844" y="123.976562"/>
<use xlink:href="#glyph-1-0" x="370.358984" y="123.976562"/>
<use xlink:href="#glyph-1-0" x="375.253125" y="123.976562"/>
<use xlink:href="#glyph-1-0" x="380.147266" y="123.976562"/>
</g>
<g fill="rgb(0%, 0%, 0%)" fill-opacity="1">
<use xlink:href="#glyph-1-6" x="365.464844" y="141.257812"/>
<use xlink:href="#glyph-1-0" x="370.358984" y="141.257812"/>
<use xlink:href="#glyph-1-0" x="375.253125" y="141.257812"/>
<use xlink:href="#glyph-1-0" x="380.147266" y="141.257812"/>
</g>
<g fill="rgb(0%, 0%, 0%)" fill-opacity="1">
<use xlink:href="#glyph-1-3" x="365.464844" y="158.539062"/>
<use xlink:href="#glyph-1-0" x="370.358984" y="158.539062"/>
<use xlink:href="#glyph-1-0" x="375.253125" y="158.539062"/>
<use xlink:href="#glyph-1-0" x="380.147266" y="158.539062"/>
</g>
</svg>
