<?xml version="1.0" encoding="UTF-8"?>
<svg xmlns="http://www.w3.org/2000/svg" xmlns:xlink="http://www.w3.org/1999/xlink" width="360pt" height="252pt" viewBox="0 0 360 252">
<defs>
<g>
<g id="glyph-0-0">
<path d="M 0.28125 -1.890625 L 0.28125 -2.667969 L 2.65625 -2.667969 L 2.65625 -1.890625 Z M 0.28125 -1.890625 "/>
</g>
<g id="glyph-0-1">
<path d="M 0.371094 -1.664062 L 1.144531 -1.765625 C 1.230469 -1.324219 1.382812 -1.007812 1.597656 -0.816406 C 1.808594 -0.621094 2.066406 -0.527344 2.375 -0.527344 C 2.734375 -0.527344 3.042969 -0.652344 3.296875 -0.90625 C 3.546875 -1.15625 3.671875 -1.46875 3.675781 -1.84375 C 3.671875 -2.195312 3.554688 -2.488281 3.324219 -2.71875 C 3.089844 -2.949219 2.796875 -3.0625 2.441406 -3.066406 C 2.292969 -3.0625 2.109375 -3.035156 1.894531 -2.980469 L 1.980469 -3.660156 C 2.03125 -3.652344 2.070312 -3.648438 2.105469 -3.652344 C 2.433594 -3.648438 2.730469 -3.734375 2.996094 -3.910156 C 3.253906 -4.078125 3.386719 -4.34375 3.390625 -4.703125 C 3.386719 -4.984375 3.289062 -5.21875 3.101562 -5.40625 C 2.90625 -5.589844 2.660156 -5.683594 2.359375 -5.6875 C 2.054688 -5.683594 1.804688 -5.589844 1.605469 -5.402344 C 1.402344 -5.214844 1.273438 -4.929688 1.21875 -4.554688 L 0.445312 -4.691406 C 0.539062 -5.207031 0.753906 -5.609375 1.089844 -5.894531 C 1.425781 -6.179688 1.84375 -6.320312 2.34375 -6.324219 C 2.6875 -6.320312 3.003906 -6.246094 3.292969 -6.101562 C 3.582031 -5.953125 3.800781 -5.753906 3.953125 -5.5 C 4.105469 -5.242188 4.183594 -4.972656 4.183594 -4.6875 C 4.183594 -4.414062 4.109375 -4.164062 3.964844 -3.945312 C 3.816406 -3.71875 3.601562 -3.542969 3.316406 -3.410156 C 3.6875 -3.324219 3.976562 -3.144531 4.183594 -2.875 C 4.390625 -2.601562 4.492188 -2.261719 4.496094 -1.859375 C 4.492188 -1.304688 4.292969 -0.839844 3.894531 -0.460938 C 3.492188 -0.078125 2.984375 0.109375 2.371094 0.113281 C 1.816406 0.109375 1.355469 -0.0507812 0.992188 -0.378906 C 0.625 -0.707031 0.417969 -1.136719 0.371094 -1.664062 Z M 0.371094 -1.664062 "/>
</g>
<g id="glyph-0-2">
<path d="M 0.367188 -3.105469 C 0.363281 -3.847656 0.4375 -4.445312 0.59375 -4.902344 C 0.742188 -5.355469 0.972656 -5.707031 1.277344 -5.953125 C 1.578125 -6.199219 1.957031 -6.320312 2.417969 -6.324219 C 2.753906 -6.320312 3.050781 -6.253906 3.308594 -6.121094 C 3.5625 -5.984375 3.773438 -5.789062 3.9375 -5.53125 C 4.101562 -5.273438 4.230469 -4.960938 4.328125 -4.59375 C 4.421875 -4.226562 4.46875 -3.730469 4.472656 -3.105469 C 4.46875 -2.367188 4.394531 -1.769531 4.242188 -1.316406 C 4.089844 -0.859375 3.863281 -0.507812 3.5625 -0.261719 C 3.257812 -0.015625 2.875 0.105469 2.417969 0.109375 C 1.808594 0.105469 1.332031 -0.109375 0.988281 -0.546875 C 0.570312 -1.066406 0.363281 -1.921875 0.367188 -3.105469 Z M 1.160156 -3.105469 C 1.160156 -2.070312 1.28125 -1.378906 1.523438 -1.039062 C 1.765625 -0.695312 2.0625 -0.527344 2.417969 -0.527344 C 2.773438 -0.527344 3.074219 -0.699219 3.316406 -1.042969 C 3.558594 -1.386719 3.679688 -2.074219 3.679688 -3.105469 C 3.679688 -4.144531 3.558594 -4.832031 3.316406 -5.171875 C 3.074219 -5.511719 2.769531 -5.683594 2.410156 -5.683594 C 2.050781 -5.683594 1.769531 -5.53125 1.558594 -5.234375 C 1.292969 -4.84375 1.160156 -4.136719 1.160156 -3.105469 Z M 1.160156 -3.105469 "/>
</g>
<g id="glyph-0-3">
<path d="M 4.429688 -0.742188 L 4.429688 0 L 0.265625 0 C 0.257812 -0.1875 0.289062 -0.367188 0.355469 -0.539062 C 0.460938 -0.820312 0.628906 -1.097656 0.863281 -1.375 C 1.09375 -1.648438 1.433594 -1.964844 1.878906 -2.328125 C 2.5625 -2.886719 3.023438 -3.332031 3.265625 -3.664062 C 3.5 -3.988281 3.621094 -4.300781 3.625 -4.59375 C 3.621094 -4.898438 3.511719 -5.15625 3.296875 -5.367188 C 3.074219 -5.578125 2.789062 -5.683594 2.441406 -5.683594 C 2.066406 -5.683594 1.769531 -5.570312 1.546875 -5.347656 C 1.320312 -5.125 1.207031 -4.816406 1.207031 -4.421875 L 0.414062 -4.503906 C 0.464844 -5.09375 0.667969 -5.542969 1.027344 -5.855469 C 1.378906 -6.164062 1.855469 -6.320312 2.457031 -6.324219 C 3.058594 -6.320312 3.539062 -6.152344 3.890625 -5.820312 C 4.242188 -5.484375 4.417969 -5.070312 4.421875 -4.578125 C 4.417969 -4.320312 4.367188 -4.074219 4.265625 -3.832031 C 4.164062 -3.589844 3.992188 -3.332031 3.753906 -3.0625 C 3.511719 -2.792969 3.113281 -2.425781 2.5625 -1.957031 C 2.09375 -1.566406 1.796875 -1.300781 1.664062 -1.160156 C 1.53125 -1.019531 1.421875 -0.878906 1.339844 -0.742188 Z M 4.429688 -0.742188 "/>
</g>
<g id="glyph-0-4">
<path d="M 3.277344 0 L 2.503906 0 L 2.503906 -4.929688 C 2.316406 -4.75 2.074219 -4.574219 1.773438 -4.394531 C 1.46875 -4.214844 1.195312 -4.082031 0.957031 -3.996094 L 0.957031 -4.742188 C 1.386719 -4.941406 1.765625 -5.1875 2.089844 -5.480469 C 2.414062 -5.769531 2.644531 -6.050781 2.78125 -6.324219 L 3.277344 -6.324219 Z M 3.277344 0 "/>
</g>
<g id="glyph-1-0">
<path d="M 6.816406 -0.84375 C 7.292969 -0.507812 7.738281 -0.261719 8.152344 -0.113281 L 7.847656 0.613281 C 7.277344 0.40625 6.714844 0.0859375 6.15625 -0.355469 C 5.570312 -0.03125 4.925781 0.128906 4.222656 0.132812 C 3.507812 0.128906 2.859375 -0.0390625 2.28125 -0.382812 C 1.699219 -0.722656 1.253906 -1.207031 0.941406 -1.832031 C 0.625 -2.453125 0.46875 -3.15625 0.472656 -3.9375 C 0.46875 -4.710938 0.625 -5.417969 0.945312 -6.058594 C 1.257812 -6.695312 1.707031 -7.179688 2.289062 -7.515625 C 2.871094 -7.847656 3.523438 -8.015625 4.242188 -8.015625 C 4.96875 -8.015625 5.621094 -7.839844 6.207031 -7.496094 C 6.789062 -7.144531 7.234375 -6.660156 7.542969 -6.042969 C 7.847656 -5.417969 8.003906 -4.71875 8.003906 -3.941406 C 8.003906 -3.289062 7.902344 -2.707031 7.707031 -2.191406 C 7.507812 -1.675781 7.210938 -1.226562 6.816406 -0.84375 Z M 4.523438 -2.175781 C 5.125 -2.003906 5.621094 -1.753906 6.011719 -1.421875 C 6.621094 -1.980469 6.925781 -2.820312 6.929688 -3.941406 C 6.925781 -4.578125 6.816406 -5.136719 6.601562 -5.613281 C 6.382812 -6.089844 6.066406 -6.457031 5.652344 -6.722656 C 5.234375 -6.980469 4.765625 -7.113281 4.25 -7.117188 C 3.46875 -7.113281 2.824219 -6.847656 2.3125 -6.320312 C 1.800781 -5.785156 1.546875 -4.992188 1.546875 -3.9375 C 1.546875 -2.914062 1.796875 -2.125 2.304688 -1.578125 C 2.808594 -1.027344 3.457031 -0.753906 4.25 -0.757812 C 4.617188 -0.753906 4.96875 -0.824219 5.300781 -0.96875 C 4.972656 -1.175781 4.628906 -1.328125 4.269531 -1.417969 Z M 4.523438 -2.175781 "/>
</g>
<g id="glyph-1-1">
<path d="M 4.464844 0 L 4.464844 -0.835938 C 4.019531 -0.191406 3.414062 0.128906 2.652344 0.128906 C 2.3125 0.128906 2 0.0664062 1.710938 -0.0625 C 1.417969 -0.191406 1.199219 -0.355469 1.058594 -0.550781 C 0.914062 -0.746094 0.816406 -0.984375 0.761719 -1.265625 C 0.722656 -1.453125 0.703125 -1.753906 0.703125 -2.171875 L 0.703125 -5.703125 L 1.671875 -5.703125 L 1.671875 -2.539062 C 1.667969 -2.03125 1.6875 -1.691406 1.730469 -1.519531 C 1.785156 -1.261719 1.914062 -1.0625 2.113281 -0.921875 C 2.308594 -0.773438 2.554688 -0.703125 2.847656 -0.703125 C 3.136719 -0.703125 3.40625 -0.777344 3.660156 -0.925781 C 3.914062 -1.074219 4.09375 -1.273438 4.199219 -1.53125 C 4.304688 -1.785156 4.359375 -2.160156 4.359375 -2.648438 L 4.359375 -5.703125 L 5.328125 -5.703125 L 5.328125 0 Z M 4.464844 0 "/>
</g>
<g id="glyph-1-2">
<path d="M 4.445312 -0.703125 C 4.085938 -0.398438 3.742188 -0.183594 3.414062 -0.0585938 C 3.082031 0.0664062 2.726562 0.128906 2.347656 0.128906 C 1.71875 0.128906 1.238281 -0.0234375 0.902344 -0.328125 C 0.566406 -0.632812 0.398438 -1.023438 0.398438 -1.503906 C 0.398438 -1.78125 0.460938 -2.035156 0.585938 -2.269531 C 0.710938 -2.496094 0.875 -2.683594 1.085938 -2.824219 C 1.289062 -2.964844 1.523438 -3.070312 1.78125 -3.140625 C 1.96875 -3.191406 2.253906 -3.238281 2.640625 -3.289062 C 3.417969 -3.375 3.992188 -3.488281 4.367188 -3.621094 C 4.367188 -3.753906 4.371094 -3.835938 4.371094 -3.871094 C 4.371094 -4.265625 4.277344 -4.542969 4.097656 -4.703125 C 3.847656 -4.917969 3.480469 -5.027344 2.996094 -5.03125 C 2.539062 -5.027344 2.203125 -4.949219 1.988281 -4.792969 C 1.769531 -4.632812 1.609375 -4.351562 1.507812 -3.949219 L 0.5625 -4.078125 C 0.648438 -4.480469 0.789062 -4.804688 0.988281 -5.054688 C 1.183594 -5.300781 1.46875 -5.492188 1.84375 -5.628906 C 2.214844 -5.761719 2.644531 -5.828125 3.136719 -5.832031 C 3.621094 -5.828125 4.019531 -5.773438 4.324219 -5.660156 C 4.628906 -5.542969 4.851562 -5.398438 4.996094 -5.226562 C 5.136719 -5.054688 5.238281 -4.835938 5.296875 -4.570312 C 5.328125 -4.40625 5.34375 -4.109375 5.34375 -3.679688 L 5.34375 -2.390625 C 5.34375 -1.492188 5.363281 -0.921875 5.40625 -0.683594 C 5.445312 -0.445312 5.527344 -0.21875 5.648438 0 L 4.640625 0 C 4.539062 -0.199219 4.472656 -0.433594 4.445312 -0.703125 Z M 4.367188 -2.863281 C 4.011719 -2.71875 3.488281 -2.597656 2.789062 -2.496094 C 2.390625 -2.4375 2.105469 -2.371094 1.941406 -2.300781 C 1.773438 -2.226562 1.648438 -2.121094 1.5625 -1.988281 C 1.472656 -1.847656 1.429688 -1.695312 1.429688 -1.53125 C 1.429688 -1.269531 1.527344 -1.054688 1.722656 -0.886719 C 1.917969 -0.710938 2.203125 -0.625 2.578125 -0.628906 C 2.949219 -0.625 3.277344 -0.707031 3.570312 -0.871094 C 3.859375 -1.03125 4.074219 -1.253906 4.210938 -1.542969 C 4.3125 -1.753906 4.363281 -2.078125 4.367188 -2.507812 Z M 4.367188 -2.863281 "/>
</g>
<g id="glyph-1-3">
<path d="M 0.726562 0 L 0.726562 -5.703125 L 1.59375 -5.703125 L 1.59375 -4.894531 C 2.011719 -5.515625 2.617188 -5.828125 3.410156 -5.832031 C 3.753906 -5.828125 4.066406 -5.765625 4.355469 -5.644531 C 4.640625 -5.519531 4.859375 -5.359375 5.003906 -5.160156 C 5.144531 -4.957031 5.242188 -4.71875 5.304688 -4.445312 C 5.335938 -4.265625 5.355469 -3.953125 5.359375 -3.507812 L 5.359375 0 L 4.394531 0 L 4.394531 -3.46875 C 4.394531 -3.863281 4.355469 -4.15625 4.28125 -4.351562 C 4.203125 -4.542969 4.070312 -4.699219 3.878906 -4.820312 C 3.6875 -4.933594 3.460938 -4.992188 3.207031 -4.996094 C 2.792969 -4.992188 2.4375 -4.859375 2.140625 -4.601562 C 1.835938 -4.335938 1.6875 -3.84375 1.691406 -3.117188 L 1.691406 0 Z M 0.726562 0 "/>
</g>
<g id="glyph-1-4">
<path d="M 2.835938 -0.863281 L 2.976562 -0.0117188 C 2.703125 0.0429688 2.457031 0.0703125 2.246094 0.0742188 C 1.890625 0.0703125 1.621094 0.0195312 1.429688 -0.0898438 C 1.234375 -0.199219 1.097656 -0.347656 1.019531 -0.527344 C 0.941406 -0.707031 0.902344 -1.085938 0.902344 -1.671875 L 0.902344 -4.953125 L 0.195312 -4.953125 L 0.195312 -5.703125 L 0.902344 -5.703125 L 0.902344 -7.117188 L 1.863281 -7.695312 L 1.863281 -5.703125 L 2.835938 -5.703125 L 2.835938 -4.953125 L 1.863281 -4.953125 L 1.863281 -1.617188 C 1.863281 -1.339844 1.878906 -1.160156 1.914062 -1.085938 C 1.945312 -1.003906 2 -0.941406 2.078125 -0.898438 C 2.152344 -0.847656 2.261719 -0.824219 2.410156 -0.828125 C 2.515625 -0.824219 2.660156 -0.835938 2.835938 -0.863281 Z M 2.835938 -0.863281 "/>
</g>
<g id="glyph-1-5">
<path d="M 0.730469 -6.761719 L 0.730469 -7.875 L 1.695312 -7.875 L 1.695312 -6.761719 Z M 0.730469 0 L 0.730469 -5.703125 L 1.695312 -5.703125 L 1.695312 0 Z M 0.730469 0 "/>
</g>
<g id="glyph-1-6">
<path d="M 0.339844 -1.703125 L 1.292969 -1.851562 C 1.34375 -1.46875 1.492188 -1.171875 1.742188 -0.96875 C 1.984375 -0.761719 2.328125 -0.660156 2.773438 -0.664062 C 3.210938 -0.660156 3.539062 -0.75 3.757812 -0.933594 C 3.96875 -1.113281 4.078125 -1.328125 4.082031 -1.574219 C 4.078125 -1.789062 3.984375 -1.960938 3.796875 -2.089844 C 3.664062 -2.171875 3.332031 -2.28125 2.808594 -2.417969 C 2.097656 -2.59375 1.605469 -2.75 1.332031 -2.882812 C 1.054688 -3.011719 0.847656 -3.191406 0.710938 -3.421875 C 0.566406 -3.652344 0.496094 -3.90625 0.5 -4.1875 C 0.496094 -4.441406 0.554688 -4.675781 0.671875 -4.894531 C 0.785156 -5.105469 0.945312 -5.289062 1.148438 -5.4375 C 1.296875 -5.546875 1.5 -5.636719 1.761719 -5.714844 C 2.019531 -5.789062 2.300781 -5.828125 2.601562 -5.832031 C 3.046875 -5.828125 3.4375 -5.765625 3.777344 -5.636719 C 4.113281 -5.507812 4.363281 -5.332031 4.527344 -5.113281 C 4.6875 -4.890625 4.796875 -4.597656 4.859375 -4.234375 L 3.914062 -4.101562 C 3.871094 -4.394531 3.746094 -4.621094 3.542969 -4.789062 C 3.335938 -4.953125 3.042969 -5.039062 2.667969 -5.039062 C 2.222656 -5.039062 1.90625 -4.964844 1.71875 -4.816406 C 1.523438 -4.667969 1.429688 -4.496094 1.433594 -4.300781 C 1.429688 -4.175781 1.46875 -4.0625 1.550781 -3.964844 C 1.628906 -3.859375 1.753906 -3.773438 1.921875 -3.707031 C 2.015625 -3.667969 2.300781 -3.585938 2.777344 -3.460938 C 3.460938 -3.273438 3.9375 -3.121094 4.207031 -3.007812 C 4.476562 -2.890625 4.6875 -2.722656 4.84375 -2.503906 C 4.996094 -2.277344 5.074219 -2.003906 5.074219 -1.675781 C 5.074219 -1.351562 4.980469 -1.046875 4.792969 -0.765625 C 4.605469 -0.480469 4.332031 -0.261719 3.980469 -0.105469 C 3.621094 0.0507812 3.222656 0.128906 2.777344 0.128906 C 2.035156 0.128906 1.46875 -0.0234375 1.082031 -0.332031 C 0.691406 -0.640625 0.445312 -1.097656 0.339844 -1.703125 Z M 0.339844 -1.703125 "/>
</g>
<g id="glyph-1-7">
</g>
<g id="glyph-1-8">
<path d="M 4.628906 -1.835938 L 5.628906 -1.714844 C 5.46875 -1.125 5.175781 -0.671875 4.75 -0.351562 C 4.324219 -0.03125 3.78125 0.128906 3.121094 0.128906 C 2.28125 0.128906 1.617188 -0.125 1.132812 -0.640625 C 0.640625 -1.152344 0.398438 -1.875 0.402344 -2.804688 C 0.398438 -3.761719 0.644531 -4.503906 1.144531 -5.035156 C 1.636719 -5.5625 2.277344 -5.828125 3.066406 -5.832031 C 3.824219 -5.828125 4.449219 -5.570312 4.933594 -5.050781 C 5.417969 -4.53125 5.660156 -3.800781 5.660156 -2.863281 C 5.660156 -2.804688 5.65625 -2.71875 5.65625 -2.605469 L 1.402344 -2.605469 C 1.433594 -1.976562 1.613281 -1.496094 1.933594 -1.164062 C 2.25 -0.828125 2.644531 -0.660156 3.125 -0.664062 C 3.476562 -0.660156 3.78125 -0.753906 4.03125 -0.945312 C 4.28125 -1.128906 4.480469 -1.425781 4.628906 -1.835938 Z M 1.457031 -3.398438 L 4.640625 -3.398438 C 4.597656 -3.878906 4.472656 -4.238281 4.273438 -4.480469 C 3.960938 -4.851562 3.5625 -5.039062 3.078125 -5.039062 C 2.628906 -5.039062 2.257812 -4.890625 1.957031 -4.59375 C 1.652344 -4.296875 1.484375 -3.898438 1.457031 -3.398438 Z M 1.457031 -3.398438 "/>
</g>
<g id="glyph-1-9">
<path d="M 0.367188 -2.851562 C 0.363281 -3.90625 0.65625 -4.6875 1.246094 -5.199219 C 1.734375 -5.617188 2.332031 -5.828125 3.039062 -5.832031 C 3.820312 -5.828125 4.460938 -5.574219 4.960938 -5.0625 C 5.457031 -4.546875 5.707031 -3.835938 5.710938 -2.933594 C 5.707031 -2.195312 5.597656 -1.617188 5.378906 -1.199219 C 5.15625 -0.777344 4.832031 -0.449219 4.414062 -0.21875 C 3.992188 0.015625 3.535156 0.128906 3.039062 0.128906 C 2.238281 0.128906 1.59375 -0.125 1.105469 -0.636719 C 0.609375 -1.148438 0.363281 -1.886719 0.367188 -2.851562 Z M 1.359375 -2.851562 C 1.359375 -2.121094 1.515625 -1.574219 1.835938 -1.210938 C 2.152344 -0.84375 2.554688 -0.660156 3.039062 -0.664062 C 3.515625 -0.660156 3.914062 -0.84375 4.234375 -1.210938 C 4.550781 -1.574219 4.710938 -2.132812 4.714844 -2.882812 C 4.710938 -3.585938 4.550781 -4.117188 4.234375 -4.484375 C 3.910156 -4.84375 3.511719 -5.027344 3.039062 -5.03125 C 2.554688 -5.027344 2.152344 -4.847656 1.835938 -4.488281 C 1.515625 -4.128906 1.359375 -3.582031 1.359375 -2.851562 Z M 2.503906 -6.414062 L 3.21875 -7.917969 L 4.484375 -7.917969 L 3.304688 -6.414062 Z M 2.503906 -6.414062 "/>
</g>
<g id="glyph-1-10">
<path d="M 0.714844 0 L 0.714844 -5.703125 L 1.585938 -5.703125 L 1.585938 -4.839844 C 1.804688 -5.242188 2.007812 -5.507812 2.199219 -5.636719 C 2.382812 -5.765625 2.589844 -5.828125 2.820312 -5.832031 C 3.140625 -5.828125 3.472656 -5.726562 3.8125 -5.523438 L 3.480469 -4.625 C 3.242188 -4.761719 3.003906 -4.832031 2.773438 -4.835938 C 2.554688 -4.832031 2.363281 -4.769531 2.199219 -4.644531 C 2.027344 -4.515625 1.910156 -4.339844 1.84375 -4.113281 C 1.730469 -3.769531 1.675781 -3.390625 1.679688 -2.984375 L 1.679688 0 Z M 0.714844 0 "/>
</g>
<g id="glyph-1-11">
<path d="M 4.445312 -2.089844 L 5.398438 -1.964844 C 5.289062 -1.308594 5.023438 -0.796875 4.597656 -0.425781 C 4.167969 -0.0546875 3.644531 0.128906 3.023438 0.128906 C 2.242188 0.128906 1.613281 -0.125 1.140625 -0.636719 C 0.664062 -1.144531 0.425781 -1.875 0.429688 -2.832031 C 0.425781 -3.441406 0.527344 -3.980469 0.734375 -4.445312 C 0.9375 -4.90625 1.25 -5.253906 1.667969 -5.484375 C 2.082031 -5.714844 2.535156 -5.828125 3.03125 -5.832031 C 3.644531 -5.828125 4.152344 -5.671875 4.546875 -5.363281 C 4.941406 -5.046875 5.191406 -4.601562 5.304688 -4.027344 L 4.367188 -3.882812 C 4.273438 -4.261719 4.117188 -4.550781 3.890625 -4.746094 C 3.664062 -4.941406 3.386719 -5.039062 3.066406 -5.039062 C 2.574219 -5.039062 2.179688 -4.863281 1.878906 -4.515625 C 1.570312 -4.164062 1.417969 -3.613281 1.421875 -2.859375 C 1.417969 -2.089844 1.566406 -1.53125 1.863281 -1.183594 C 2.15625 -0.835938 2.539062 -0.660156 3.011719 -0.664062 C 3.390625 -0.660156 3.707031 -0.777344 3.960938 -1.011719 C 4.214844 -1.242188 4.375 -1.601562 4.445312 -2.089844 Z M 4.445312 -2.089844 "/>
</g>
<g id="glyph-1-12">
<path d="M 0.367188 -2.851562 C 0.363281 -3.90625 0.65625 -4.6875 1.246094 -5.199219 C 1.734375 -5.617188 2.332031 -5.828125 3.039062 -5.832031 C 3.820312 -5.828125 4.460938 -5.574219 4.960938 -5.0625 C 5.457031 -4.546875 5.707031 -3.835938 5.710938 -2.933594 C 5.707031 -2.195312 5.597656 -1.617188 5.378906 -1.199219 C 5.15625 -0.777344 4.832031 -0.449219 4.414062 -0.21875 C 3.992188 0.015625 3.535156 0.128906 3.039062 0.128906 C 2.238281 0.128906 1.59375 -0.125 1.105469 -0.636719 C 0.609375 -1.148438 0.363281 -1.886719 0.367188 -2.851562 Z M 1.359375 -2.851562 C 1.359375 -2.121094 1.515625 -1.574219 1.835938 -1.210938 C 2.152344 -0.84375 2.554688 -0.660156 3.039062 -0.664062 C 3.515625 -0.660156 3.914062 -0.84375 4.234375 -1.210938 C 4.550781 -1.574219 4.710938 -2.132812 4.714844 -2.882812 C 4.710938 -3.585938 4.550781 -4.117188 4.234375 -4.484375 C 3.910156 -4.84375 3.511719 -5.027344 3.039062 -5.03125 C 2.554688 -5.027344 2.152344 -4.847656 1.835938 -4.488281 C 1.515625 -4.128906 1.359375 -3.582031 1.359375 -2.851562 Z M 1.359375 -2.851562 "/>
</g>
<g id="glyph-2-0">
<path d="M 0 -0.863281 L -7.875 -0.863281 L -7.875 -4.355469 C -7.875 -5.054688 -7.800781 -5.589844 -7.660156 -5.957031 C -7.515625 -6.320312 -7.265625 -6.613281 -6.910156 -6.832031 C -6.550781 -7.050781 -6.15625 -7.160156 -5.726562 -7.160156 C -5.164062 -7.160156 -4.695312 -6.976562 -4.3125 -6.617188 C -3.929688 -6.25 -3.683594 -5.691406 -3.582031 -4.941406 C -3.445312 -5.214844 -3.316406 -5.425781 -3.191406 -5.570312 C -2.90625 -5.871094 -2.558594 -6.160156 -2.144531 -6.433594 L 0 -7.804688 L 0 -6.492188 L -1.636719 -5.453125 C -2.105469 -5.144531 -2.46875 -4.894531 -2.722656 -4.699219 C -2.96875 -4.503906 -3.144531 -4.328125 -3.246094 -4.171875 C -3.347656 -4.015625 -3.417969 -3.855469 -3.457031 -3.695312 C -3.480469 -3.574219 -3.492188 -3.382812 -3.496094 -3.117188 L -3.496094 -1.90625 L 0 -1.90625 Z M -4.398438 -1.90625 L -4.398438 -4.148438 C -4.394531 -4.621094 -4.445312 -4.992188 -4.546875 -5.261719 C -4.644531 -5.53125 -4.800781 -5.734375 -5.019531 -5.875 C -5.234375 -6.011719 -5.46875 -6.082031 -5.726562 -6.085938 C -6.09375 -6.082031 -6.402344 -5.945312 -6.644531 -5.679688 C -6.882812 -5.40625 -7 -4.980469 -7.003906 -4.398438 L -7.003906 -1.90625 Z M -4.398438 -1.90625 "/>
</g>
<g id="glyph-2-1">
<path d="M -1.835938 -4.628906 L -1.714844 -5.628906 C -1.125 -5.46875 -0.671875 -5.175781 -0.351562 -4.75 C -0.03125 -4.324219 0.128906 -3.78125 0.128906 -3.121094 C 0.128906 -2.28125 -0.125 -1.617188 -0.640625 -1.132812 C -1.152344 -0.640625 -1.875 -0.398438 -2.804688 -0.402344 C -3.761719 -0.398438 -4.503906 -0.644531 -5.035156 -1.144531 C -5.5625 -1.636719 -5.828125 -2.277344 -5.832031 -3.066406 C -5.828125 -3.824219 -5.570312 -4.449219 -5.050781 -4.933594 C -4.53125 -5.417969 -3.800781 -5.660156 -2.863281 -5.660156 C -2.804688 -5.660156 -2.71875 -5.65625 -2.605469 -5.65625 L -2.605469 -1.402344 C -1.976562 -1.433594 -1.496094 -1.613281 -1.164062 -1.933594 C -0.828125 -2.25 -0.660156 -2.644531 -0.664062 -3.125 C -0.660156 -3.476562 -0.753906 -3.78125 -0.941406 -4.03125 C -1.125 -4.28125 -1.421875 -4.480469 -1.835938 -4.628906 Z M -3.398438 -1.457031 L -3.398438 -4.640625 C -3.878906 -4.597656 -4.238281 -4.472656 -4.480469 -4.273438 C -4.851562 -3.960938 -5.039062 -3.5625 -5.039062 -3.078125 C -5.039062 -2.628906 -4.890625 -2.257812 -4.59375 -1.957031 C -4.296875 -1.652344 -3.898438 -1.484375 -3.398438 -1.457031 Z M -3.398438 -1.457031 "/>
</g>
<g id="glyph-2-2">
<path d="M -1.703125 -0.339844 L -1.851562 -1.292969 C -1.46875 -1.34375 -1.171875 -1.492188 -0.96875 -1.742188 C -0.761719 -1.984375 -0.660156 -2.328125 -0.664062 -2.773438 C -0.660156 -3.210938 -0.75 -3.539062 -0.933594 -3.757812 C -1.113281 -3.96875 -1.328125 -4.078125 -1.574219 -4.082031 C -1.789062 -4.078125 -1.960938 -3.984375 -2.089844 -3.796875 C -2.171875 -3.664062 -2.28125 -3.332031 -2.417969 -2.808594 C -2.59375 -2.097656 -2.75 -1.609375 -2.882812 -1.335938 C -3.011719 -1.0625 -3.191406 -0.851562 -3.421875 -0.710938 C -3.652344 -0.566406 -3.90625 -0.496094 -4.1875 -0.5 C -4.441406 -0.496094 -4.675781 -0.554688 -4.894531 -0.671875 C -5.105469 -0.785156 -5.289062 -0.945312 -5.4375 -1.148438 C -5.546875 -1.296875 -5.636719 -1.5 -5.714844 -1.761719 C -5.789062 -2.019531 -5.828125 -2.300781 -5.832031 -2.601562 C -5.828125 -3.046875 -5.765625 -3.4375 -5.636719 -3.777344 C -5.507812 -4.113281 -5.332031 -4.363281 -5.113281 -4.527344 C -4.890625 -4.6875 -4.597656 -4.796875 -4.234375 -4.859375 L -4.101562 -3.914062 C -4.394531 -3.871094 -4.621094 -3.746094 -4.789062 -3.542969 C -4.953125 -3.335938 -5.039062 -3.042969 -5.039062 -2.667969 C -5.039062 -2.222656 -4.964844 -1.90625 -4.816406 -1.71875 C -4.667969 -1.523438 -4.496094 -1.429688 -4.300781 -1.433594 C -4.175781 -1.429688 -4.0625 -1.46875 -3.964844 -1.550781 C -3.859375 -1.628906 -3.773438 -1.753906 -3.707031 -1.921875 C -3.667969 -2.015625 -3.585938 -2.300781 -3.460938 -2.777344 C -3.273438 -3.460938 -3.121094 -3.9375 -3.007812 -4.207031 C -2.890625 -4.476562 -2.722656 -4.6875 -2.5 -4.84375 C -2.277344 -4.996094 -2.003906 -5.074219 -1.675781 -5.074219 C -1.351562 -5.074219 -1.046875 -4.980469 -0.765625 -4.792969 C -0.480469 -4.605469 -0.261719 -4.332031 -0.105469 -3.980469 C 0.0507812 -3.621094 0.128906 -3.222656 0.128906 -2.777344 C 0.128906 -2.035156 -0.0234375 -1.46875 -0.332031 -1.082031 C -0.640625 -0.691406 -1.097656 -0.445312 -1.703125 -0.339844 Z M -1.703125 -0.339844 "/>
</g>
<g id="glyph-2-3">
<path d="M 0 -1.0625 L -5.703125 -1.0625 L -5.703125 -2.03125 L 0 -2.03125 Z M -6.414062 -1.015625 L -7.917969 -1.730469 L -7.917969 -2.996094 L -6.414062 -1.816406 Z M -6.414062 -1.015625 "/>
</g>
<g id="glyph-2-4">
<path d="M 0 -4.425781 L -0.71875 -4.425781 C -0.152344 -4.058594 0.128906 -3.527344 0.128906 -2.832031 C 0.128906 -2.371094 0.00390625 -1.953125 -0.246094 -1.574219 C -0.496094 -1.191406 -0.84375 -0.894531 -1.296875 -0.6875 C -1.742188 -0.476562 -2.261719 -0.375 -2.847656 -0.375 C -3.414062 -0.375 -3.929688 -0.46875 -4.394531 -0.660156 C -4.859375 -0.847656 -5.214844 -1.132812 -5.460938 -1.515625 C -5.707031 -1.894531 -5.828125 -2.320312 -5.832031 -2.789062 C -5.828125 -3.132812 -5.757812 -3.4375 -5.613281 -3.707031 C -5.46875 -3.972656 -5.277344 -4.191406 -5.046875 -4.359375 L -7.875 -4.363281 L -7.875 -5.324219 L 0 -5.324219 Z M -2.847656 -1.371094 C -2.113281 -1.371094 -1.566406 -1.523438 -1.207031 -1.832031 C -0.84375 -2.136719 -0.660156 -2.5 -0.664062 -2.921875 C -0.660156 -3.339844 -0.835938 -3.699219 -1.183594 -3.996094 C -1.527344 -4.292969 -2.054688 -4.441406 -2.765625 -4.441406 C -3.546875 -4.441406 -4.117188 -4.289062 -4.484375 -3.988281 C -4.84375 -3.6875 -5.027344 -3.316406 -5.03125 -2.878906 C -5.027344 -2.445312 -4.851562 -2.085938 -4.503906 -1.800781 C -4.152344 -1.511719 -3.601562 -1.371094 -2.847656 -1.371094 Z M -2.847656 -1.371094 "/>
</g>
<g id="glyph-2-5">
<path d="M 0 -4.464844 L -0.835938 -4.464844 C -0.191406 -4.019531 0.128906 -3.414062 0.128906 -2.652344 C 0.128906 -2.3125 0.0664062 -2 -0.0625 -1.710938 C -0.191406 -1.417969 -0.355469 -1.199219 -0.550781 -1.058594 C -0.746094 -0.914062 -0.984375 -0.816406 -1.265625 -0.761719 C -1.453125 -0.722656 -1.753906 -0.703125 -2.171875 -0.703125 L -5.703125 -0.703125 L -5.703125 -1.671875 L -2.539062 -1.671875 C -2.03125 -1.667969 -1.691406 -1.6875 -1.519531 -1.730469 C -1.261719 -1.785156 -1.0625 -1.914062 -0.917969 -2.113281 C -0.773438 -2.308594 -0.703125 -2.554688 -0.703125 -2.847656 C -0.703125 -3.136719 -0.777344 -3.40625 -0.925781 -3.660156 C -1.074219 -3.914062 -1.273438 -4.09375 -1.53125 -4.199219 C -1.785156 -4.304688 -2.160156 -4.359375 -2.648438 -4.359375 L -5.703125 -4.359375 L -5.703125 -5.328125 L 0 -5.328125 Z M 0 -4.464844 "/>
</g>
<g id="glyph-2-6">
<path d="M -2.851562 -0.367188 C -3.90625 -0.363281 -4.6875 -0.65625 -5.199219 -1.246094 C -5.617188 -1.734375 -5.828125 -2.332031 -5.832031 -3.039062 C -5.828125 -3.820312 -5.574219 -4.460938 -5.0625 -4.960938 C -4.546875 -5.457031 -3.835938 -5.707031 -2.933594 -5.710938 C -2.195312 -5.707031 -1.617188 -5.597656 -1.199219 -5.378906 C -0.777344 -5.15625 -0.449219 -4.832031 -0.21875 -4.414062 C 0.015625 -3.992188 0.128906 -3.535156 0.128906 -3.039062 C 0.128906 -2.238281 -0.125 -1.59375 -0.636719 -1.105469 C -1.148438 -0.609375 -1.886719 -0.363281 -2.851562 -0.367188 Z M -2.851562 -1.359375 C -2.121094 -1.359375 -1.574219 -1.515625 -1.210938 -1.835938 C -0.84375 -2.152344 -0.660156 -2.554688 -0.664062 -3.039062 C -0.660156 -3.515625 -0.84375 -3.914062 -1.210938 -4.234375 C -1.574219 -4.550781 -2.132812 -4.710938 -2.882812 -4.714844 C -3.585938 -4.710938 -4.117188 -4.550781 -4.484375 -4.234375 C -4.84375 -3.910156 -5.027344 -3.511719 -5.03125 -3.039062 C -5.027344 -2.554688 -4.847656 -2.152344 -4.488281 -1.835938 C -4.128906 -1.515625 -3.582031 -1.359375 -2.851562 -1.359375 Z M -2.851562 -1.359375 "/>
</g>
</g>
<clipPath id="clip-0">
<path clip-rule="nonzero" d="M 31.164062 196 L 354.519531 196 L 354.519531 198 L 31.164062 198 Z M 31.164062 196 "/>
</clipPath>
<clipPath id="clip-1">
<path clip-rule="nonzero" d="M 31.164062 140 L 354.519531 140 L 354.519531 142 L 31.164062 142 Z M 31.164062 140 "/>
</clipPath>
<clipPath id="clip-2">
<path clip-rule="nonzero" d="M 31.164062 84 L 354.519531 84 L 354.519531 85 L 31.164062 85 Z M 31.164062 84 "/>
</clipPath>
<clipPath id="clip-3">
<path clip-rule="nonzero" d="M 31.164062 28 L 354.519531 28 L 354.519531 29 L 31.164062 29 Z M 31.164062 28 "/>
</clipPath>
<clipPath id="clip-4">
<path clip-rule="nonzero" d="M 78 5.480469 L 80 5.480469 L 80 220.511719 L 78 220.511719 Z M 78 5.480469 "/>
</clipPath>
<clipPath id="clip-5">
<path clip-rule="nonzero" d="M 154 5.480469 L 156 5.480469 L 156 220.511719 L 154 220.511719 Z M 154 5.480469 "/>
</clipPath>
<clipPath id="clip-6">
<path clip-rule="nonzero" d="M 230 5.480469 L 232 5.480469 L 232 220.511719 L 230 220.511719 Z M 230 5.480469 "/>
</clipPath>
<clipPath id="clip-7">
<path clip-rule="nonzero" d="M 306 5.480469 L 307 5.480469 L 307 220.511719 L 306 220.511719 Z M 306 5.480469 "/>
</clipPath>
<clipPath id="clip-8">
<path clip-rule="nonzero" d="M 31.164062 168 L 354.519531 168 L 354.519531 170 L 31.164062 170 Z M 31.164062 168 "/>
</clipPath>
<clipPath id="clip-9">
<path clip-rule="nonzero" d="M 31.164062 112 L 354.519531 112 L 354.519531 114 L 31.164062 114 Z M 31.164062 112 "/>
</clipPath>
<clipPath id="clip-10">
<path clip-rule="nonzero" d="M 31.164062 55 L 354.519531 55 L 354.519531 58 L 31.164062 58 Z M 31.164062 55 "/>
</clipPath>
<clipPath id="clip-11">
<path clip-rule="nonzero" d="M 40 5.480469 L 42 5.480469 L 42 220.511719 L 40 220.511719 Z M 40 5.480469 "/>
</clipPath>
<clipPath id="clip-12">
<path clip-rule="nonzero" d="M 116 5.480469 L 118 5.480469 L 118 220.511719 L 116 220.511719 Z M 116 5.480469 "/>
</clipPath>
<clipPath id="clip-13">
<path clip-rule="nonzero" d="M 192 5.480469 L 194 5.480469 L 194 220.511719 L 192 220.511719 Z M 192 5.480469 "/>
</clipPath>
<clipPath id="clip-14">
<path clip-rule="nonzero" d="M 268 5.480469 L 270 5.480469 L 270 220.511719 L 268 220.511719 Z M 268 5.480469 "/>
</clipPath>
<clipPath id="clip-15">
<path clip-rule="nonzero" d="M 343 5.480469 L 346 5.480469 L 346 220.511719 L 343 220.511719 Z M 343 5.480469 "/>
</clipPath>
<clipPath id="clip-16">
<path clip-rule="nonzero" d="M 31.164062 5.480469 L 354.519531 5.480469 L 354.519531 220.511719 L 31.164062 220.511719 Z M 31.164062 5.480469 "/>
</clipPath>
</defs>
<rect x="-36" y="-25.2" width="432" height="302.4" fill="rgb(100%, 100%, 100%)" fill-opacity="1"/>
<rect x="-36" y="-25.2" width="432" height="302.4" fill="rgb(100%, 100%, 100%)" fill-opacity="1"/>
<g clip-path="url(#clip-0)">
<path fill="none" stroke-width="0.533489" stroke-linecap="butt" stroke-linejoin="round" stroke="rgb(92.156863%, 92.156863%, 92.156863%)" stroke-opacity="1" stroke-miterlimit="10" d="M 31.164062 197.03125 L 354.519531 197.03125 "/>
</g>
<g clip-path="url(#clip-1)">
<path fill="none" stroke-width="0.533489" stroke-linecap="butt" stroke-linejoin="round" stroke="rgb(92.156863%, 92.156863%, 92.156863%)" stroke-opacity="1" stroke-miterlimit="10" d="M 31.164062 140.8125 L 354.519531 140.8125 "/>
</g>
<g clip-path="url(#clip-2)">
<path fill="none" stroke-width="0.533489" stroke-linecap="butt" stroke-linejoin="round" stroke="rgb(92.156863%, 92.156863%, 92.156863%)" stroke-opacity="1" stroke-miterlimit="10" d="M 31.164062 84.589844 L 354.519531 84.589844 "/>
</g>
<g clip-path="url(#clip-3)">
<path fill="none" stroke-width="0.533489" stroke-linecap="butt" stroke-linejoin="round" stroke="rgb(92.156863%, 92.156863%, 92.156863%)" stroke-opacity="1" stroke-miterlimit="10" d="M 31.164062 28.371094 L 354.519531 28.371094 "/>
</g>
<g clip-path="url(#clip-4)">
<path fill="none" stroke-width="0.533489" stroke-linecap="butt" stroke-linejoin="round" stroke="rgb(92.156863%, 92.156863%, 92.156863%)" stroke-opacity="1" stroke-miterlimit="10" d="M 79.078125 220.507812 L 79.078125 5.480469 "/>
</g>
<g clip-path="url(#clip-5)">
<path fill="none" stroke-width="0.533489" stroke-linecap="butt" stroke-linejoin="round" stroke="rgb(92.156863%, 92.156863%, 92.156863%)" stroke-opacity="1" stroke-miterlimit="10" d="M 154.921875 220.507812 L 154.921875 5.480469 "/>
</g>
<g clip-path="url(#clip-6)">
<path fill="none" stroke-width="0.533489" stroke-linecap="butt" stroke-linejoin="round" stroke="rgb(92.156863%, 92.156863%, 92.156863%)" stroke-opacity="1" stroke-miterlimit="10" d="M 230.765625 220.507812 L 230.765625 5.480469 "/>
</g>
<g clip-path="url(#clip-7)">
<path fill="none" stroke-width="0.533489" stroke-linecap="butt" stroke-linejoin="round" stroke="rgb(92.156863%, 92.156863%, 92.156863%)" stroke-opacity="1" stroke-miterlimit="10" d="M 306.609375 220.507812 L 306.609375 5.480469 "/>
</g>
<g clip-path="url(#clip-8)">
<path fill="none" stroke-width="1.066978" stroke-linecap="butt" stroke-linejoin="round" stroke="rgb(92.156863%, 92.156863%, 92.156863%)" stroke-opacity="1" stroke-miterlimit="10" d="M 31.164062 168.921875 L 354.519531 168.921875 "/>
</g>
<g clip-path="url(#clip-9)">
<path fill="none" stroke-width="1.066978" stroke-linecap="butt" stroke-linejoin="round" stroke="rgb(92.156863%, 92.156863%, 92.156863%)" stroke-opacity="1" stroke-miterlimit="10" d="M 31.164062 112.703125 L 354.519531 112.703125 "/>
</g>
<g clip-path="url(#clip-10)">
<path fill="none" stroke-width="1.066978" stroke-linecap="butt" stroke-linejoin="round" stroke="rgb(92.156863%, 92.156863%, 92.156863%)" stroke-opacity="1" stroke-miterlimit="10" d="M 31.164062 56.480469 L 354.519531 56.480469 "/>
</g>
<g clip-path="url(#clip-11)">
<path fill="none" stroke-width="1.066978" stroke-linecap="butt" stroke-linejoin="round" stroke="rgb(92.156863%, 92.156863%, 92.156863%)" stroke-opacity="1" stroke-miterlimit="10" d="M 41.15625 220.507812 L 41.15625 5.480469 "/>
</g>
<g clip-path="url(#clip-12)">
<path fill="none" stroke-width="1.066978" stroke-linecap="butt" stroke-linejoin="round" stroke="rgb(92.156863%, 92.156863%, 92.156863%)" stroke-opacity="1" stroke-miterlimit="10" d="M 117 220.507812 L 117 5.480469 "/>
</g>
<g clip-path="url(#clip-13)">
<path fill="none" stroke-width="1.066978" stroke-linecap="butt" stroke-linejoin="round" stroke="rgb(92.156863%, 92.156863%, 92.156863%)" stroke-opacity="1" stroke-miterlimit="10" d="M 192.84375 220.507812 L 192.84375 5.480469 "/>
</g>
<g clip-path="url(#clip-14)">
<path fill="none" stroke-width="1.066978" stroke-linecap="butt" stroke-linejoin="round" stroke="rgb(92.156863%, 92.156863%, 92.156863%)" stroke-opacity="1" stroke-miterlimit="10" d="M 268.6875 220.507812 L 268.6875 5.480469 "/>
</g>
<g clip-path="url(#clip-15)">
<path fill="none" stroke-width="1.066978" stroke-linecap="butt" stroke-linejoin="round" stroke="rgb(92.156863%, 92.156863%, 92.156863%)" stroke-opacity="1" stroke-miterlimit="10" d="M 344.53125 220.507812 L 344.53125 5.480469 "/>
</g>
<path fill-rule="nonzero" fill="rgb(18.039216%, 49.019608%, 56.078431%)" fill-opacity="1" stroke-width="0.708661" stroke-linecap="round" stroke-linejoin="round" stroke="rgb(18.039216%, 49.019608%, 56.078431%)" stroke-opacity="1" stroke-miterlimit="10" d="M 47.816406 180.164062 C 47.816406 182.773438 43.90625 182.773438 43.90625 180.164062 C 43.90625 177.558594 47.816406 177.558594 47.816406 180.164062 "/>
<path fill-rule="nonzero" fill="rgb(18.039216%, 49.019608%, 56.078431%)" fill-opacity="1" stroke-width="0.708661" stroke-linecap="round" stroke-linejoin="round" stroke="rgb(18.039216%, 49.019608%, 56.078431%)" stroke-opacity="1" stroke-miterlimit="10" d="M 87.691406 178.292969 C 87.691406 180.898438 83.78125 180.898438 83.78125 178.292969 C 83.78125 175.683594 87.691406 175.683594 87.691406 178.292969 "/>
<path fill-rule="nonzero" fill="rgb(18.039216%, 49.019608%, 56.078431%)" fill-opacity="1" stroke-width="0.708661" stroke-linecap="round" stroke-linejoin="round" stroke="rgb(18.039216%, 49.019608%, 56.078431%)" stroke-opacity="1" stroke-miterlimit="10" d="M 109.929688 172.667969 C 109.929688 175.277344 106.023438 175.277344 106.023438 172.667969 C 106.023438 170.0625 109.929688 170.0625 109.929688 172.667969 "/>
<path fill-rule="nonzero" fill="rgb(18.039216%, 49.019608%, 56.078431%)" fill-opacity="1" stroke-width="0.708661" stroke-linecap="round" stroke-linejoin="round" stroke="rgb(18.039216%, 49.019608%, 56.078431%)" stroke-opacity="1" stroke-miterlimit="10" d="M 126.582031 165.171875 C 126.582031 167.78125 122.671875 167.78125 122.671875 165.171875 C 122.671875 162.566406 126.582031 162.566406 126.582031 165.171875 "/>
<path fill-rule="nonzero" fill="rgb(18.039216%, 49.019608%, 56.078431%)" fill-opacity="1" stroke-width="0.708661" stroke-linecap="round" stroke-linejoin="round" stroke="rgb(18.039216%, 49.019608%, 56.078431%)" stroke-opacity="1" stroke-miterlimit="10" d="M 140.457031 153.929688 C 140.457031 156.535156 136.546875 156.535156 136.546875 153.929688 C 136.546875 151.324219 140.457031 151.324219 140.457031 153.929688 "/>
<path fill-rule="nonzero" fill="rgb(18.039216%, 49.019608%, 56.078431%)" fill-opacity="1" stroke-width="0.708661" stroke-linecap="round" stroke-linejoin="round" stroke="rgb(18.039216%, 49.019608%, 56.078431%)" stroke-opacity="1" stroke-miterlimit="10" d="M 152.710938 146.433594 C 152.710938 149.039062 148.800781 149.039062 148.800781 146.433594 C 148.800781 143.828125 152.710938 143.828125 152.710938 146.433594 "/>
<path fill-rule="nonzero" fill="rgb(18.039216%, 49.019608%, 56.078431%)" fill-opacity="1" stroke-width="0.708661" stroke-linecap="round" stroke-linejoin="round" stroke="rgb(18.039216%, 49.019608%, 56.078431%)" stroke-opacity="1" stroke-miterlimit="10" d="M 163.949219 142.6875 C 163.949219 145.292969 160.039062 145.292969 160.039062 142.6875 C 160.039062 140.078125 163.949219 140.078125 163.949219 142.6875 "/>
<path fill-rule="nonzero" fill="rgb(18.039216%, 49.019608%, 56.078431%)" fill-opacity="1" stroke-width="0.708661" stroke-linecap="round" stroke-linejoin="round" stroke="rgb(18.039216%, 49.019608%, 56.078431%)" stroke-opacity="1" stroke-miterlimit="10" d="M 174.546875 127.695312 C 174.546875 130.300781 170.636719 130.300781 170.636719 127.695312 C 170.636719 125.085938 174.546875 125.085938 174.546875 127.695312 "/>
<path fill-rule="nonzero" fill="rgb(18.039216%, 49.019608%, 56.078431%)" fill-opacity="1" stroke-width="0.708661" stroke-linecap="round" stroke-linejoin="round" stroke="rgb(18.039216%, 49.019608%, 56.078431%)" stroke-opacity="1" stroke-miterlimit="10" d="M 184.761719 123.945312 C 184.761719 126.550781 180.851562 126.550781 180.851562 123.945312 C 180.851562 121.339844 184.761719 121.339844 184.761719 123.945312 "/>
<path fill-rule="nonzero" fill="rgb(18.039216%, 49.019608%, 56.078431%)" fill-opacity="1" stroke-width="0.708661" stroke-linecap="round" stroke-linejoin="round" stroke="rgb(18.039216%, 49.019608%, 56.078431%)" stroke-opacity="1" stroke-miterlimit="10" d="M 194.796875 122.070312 C 194.796875 124.679688 190.886719 124.679688 190.886719 122.070312 C 190.886719 119.464844 194.796875 119.464844 194.796875 122.070312 "/>
<path fill-rule="nonzero" fill="rgb(18.039216%, 49.019608%, 56.078431%)" fill-opacity="1" stroke-width="0.708661" stroke-linecap="round" stroke-linejoin="round" stroke="rgb(18.039216%, 49.019608%, 56.078431%)" stroke-opacity="1" stroke-miterlimit="10" d="M 204.832031 116.449219 C 204.832031 119.054688 200.921875 119.054688 200.921875 116.449219 C 200.921875 113.84375 204.832031 113.84375 204.832031 116.449219 "/>
<path fill-rule="nonzero" fill="rgb(18.039216%, 49.019608%, 56.078431%)" fill-opacity="1" stroke-width="0.708661" stroke-linecap="round" stroke-linejoin="round" stroke="rgb(18.039216%, 49.019608%, 56.078431%)" stroke-opacity="1" stroke-miterlimit="10" d="M 215.046875 108.953125 C 215.046875 111.558594 211.136719 111.558594 211.136719 108.953125 C 211.136719 106.347656 215.046875 106.347656 215.046875 108.953125 "/>
<path fill-rule="nonzero" fill="rgb(18.039216%, 49.019608%, 56.078431%)" fill-opacity="1" stroke-width="0.708661" stroke-linecap="round" stroke-linejoin="round" stroke="rgb(18.039216%, 49.019608%, 56.078431%)" stroke-opacity="1" stroke-miterlimit="10" d="M 225.644531 97.710938 C 225.644531 100.316406 221.734375 100.316406 221.734375 97.710938 C 221.734375 95.101562 225.644531 95.101562 225.644531 97.710938 "/>
<path fill-rule="nonzero" fill="rgb(18.039216%, 49.019608%, 56.078431%)" fill-opacity="1" stroke-width="0.708661" stroke-linecap="round" stroke-linejoin="round" stroke="rgb(18.039216%, 49.019608%, 56.078431%)" stroke-opacity="1" stroke-miterlimit="10" d="M 236.882812 86.464844 C 236.882812 89.070312 232.976562 89.070312 232.976562 86.464844 C 232.976562 83.859375 236.882812 83.859375 236.882812 86.464844 "/>
<path fill-rule="nonzero" fill="rgb(18.039216%, 49.019608%, 56.078431%)" fill-opacity="1" stroke-width="0.708661" stroke-linecap="round" stroke-linejoin="round" stroke="rgb(18.039216%, 49.019608%, 56.078431%)" stroke-opacity="1" stroke-miterlimit="10" d="M 249.140625 84.589844 C 249.140625 87.199219 245.230469 87.199219 245.230469 84.589844 C 245.230469 81.984375 249.140625 81.984375 249.140625 84.589844 "/>
<path fill-rule="nonzero" fill="rgb(18.039216%, 49.019608%, 56.078431%)" fill-opacity="1" stroke-width="0.708661" stroke-linecap="round" stroke-linejoin="round" stroke="rgb(18.039216%, 49.019608%, 56.078431%)" stroke-opacity="1" stroke-miterlimit="10" d="M 263.015625 65.851562 C 263.015625 68.457031 259.105469 68.457031 259.105469 65.851562 C 259.105469 63.246094 263.015625 63.246094 263.015625 65.851562 "/>
<path fill-rule="nonzero" fill="rgb(18.039216%, 49.019608%, 56.078431%)" fill-opacity="1" stroke-width="0.708661" stroke-linecap="round" stroke-linejoin="round" stroke="rgb(18.039216%, 49.019608%, 56.078431%)" stroke-opacity="1" stroke-miterlimit="10" d="M 279.664062 30.246094 C 279.664062 32.851562 275.753906 32.851562 275.753906 30.246094 C 275.753906 27.640625 279.664062 27.640625 279.664062 30.246094 "/>
<path fill-rule="nonzero" fill="rgb(18.039216%, 49.019608%, 56.078431%)" fill-opacity="1" stroke-width="0.708661" stroke-linecap="round" stroke-linejoin="round" stroke="rgb(18.039216%, 49.019608%, 56.078431%)" stroke-opacity="1" stroke-miterlimit="10" d="M 301.902344 22.75 C 301.902344 25.355469 297.992188 25.355469 297.992188 22.75 C 297.992188 20.144531 301.902344 20.144531 301.902344 22.75 "/>
<path fill-rule="nonzero" fill="rgb(18.039216%, 49.019608%, 56.078431%)" fill-opacity="1" stroke-width="0.708661" stroke-linecap="round" stroke-linejoin="round" stroke="rgb(18.039216%, 49.019608%, 56.078431%)" stroke-opacity="1" stroke-miterlimit="10" d="M 341.777344 15.253906 C 341.777344 17.859375 337.867188 17.859375 337.867188 15.253906 C 337.867188 12.648438 341.777344 12.648438 341.777344 15.253906 "/>
<g clip-path="url(#clip-16)">
<path fill="none" stroke-width="1.066978" stroke-linecap="butt" stroke-linejoin="round" stroke="rgb(90.588235%, 43.529412%, 31.764706%)" stroke-opacity="1" stroke-miterlimit="10" d="M -292.191406 424.359375 L 677.875 -188.648438 "/>
</g>
<g fill="rgb(30.196078%, 30.196078%, 30.196078%)" fill-opacity="1">
<use xlink:href="#glyph-0-0" x="18.410156" y="172.070312"/>
<use xlink:href="#glyph-0-1" x="21.340625" y="172.070312"/>
</g>
<g fill="rgb(30.196078%, 30.196078%, 30.196078%)" fill-opacity="1">
<use xlink:href="#glyph-0-2" x="21.339844" y="115.851562"/>
</g>
<g fill="rgb(30.196078%, 30.196078%, 30.196078%)" fill-opacity="1">
<use xlink:href="#glyph-0-1" x="21.339844" y="59.632812"/>
</g>
<g fill="rgb(30.196078%, 30.196078%, 30.196078%)" fill-opacity="1">
<use xlink:href="#glyph-0-0" x="37.242188" y="231.738281"/>
<use xlink:href="#glyph-0-3" x="40.172656" y="231.738281"/>
</g>
<g fill="rgb(30.196078%, 30.196078%, 30.196078%)" fill-opacity="1">
<use xlink:href="#glyph-0-0" x="113.085938" y="231.738281"/>
<use xlink:href="#glyph-0-4" x="116.016406" y="231.738281"/>
</g>
<g fill="rgb(30.196078%, 30.196078%, 30.196078%)" fill-opacity="1">
<use xlink:href="#glyph-0-2" x="190.398438" y="231.738281"/>
</g>
<g fill="rgb(30.196078%, 30.196078%, 30.196078%)" fill-opacity="1">
<use xlink:href="#glyph-0-4" x="266.242188" y="231.738281"/>
</g>
<g fill="rgb(30.196078%, 30.196078%, 30.196078%)" fill-opacity="1">
<use xlink:href="#glyph-0-3" x="342.085938" y="231.738281"/>
</g>
<g fill="rgb(0%, 0%, 0%)" fill-opacity="1">
<use xlink:href="#glyph-1-0" x="153.101562" y="244.207031"/>
<use xlink:href="#glyph-1-1" x="161.657715" y="244.207031"/>
<use xlink:href="#glyph-1-2" x="167.775391" y="244.207031"/>
<use xlink:href="#glyph-1-3" x="173.893066" y="244.207031"/>
<use xlink:href="#glyph-1-4" x="180.010742" y="244.207031"/>
<use xlink:href="#glyph-1-5" x="183.066895" y="244.207031"/>
<use xlink:href="#glyph-1-6" x="185.510742" y="244.207031"/>
<use xlink:href="#glyph-1-7" x="191.010742" y="244.207031"/>
<use xlink:href="#glyph-1-4" x="194.066895" y="244.207031"/>
<use xlink:href="#glyph-1-8" x="197.123047" y="244.207031"/>
<use xlink:href="#glyph-1-9" x="203.240723" y="244.207031"/>
<use xlink:href="#glyph-1-10" x="209.358398" y="244.207031"/>
<use xlink:href="#glyph-1-5" x="213.021484" y="244.207031"/>
<use xlink:href="#glyph-1-11" x="215.465332" y="244.207031"/>
<use xlink:href="#glyph-1-12" x="220.965332" y="244.207031"/>
<use xlink:href="#glyph-1-6" x="227.083008" y="244.207031"/>
</g>
<g fill="rgb(0%, 0%, 0%)" fill-opacity="1">
<use xlink:href="#glyph-2-0" x="13.351562" y="136.230469"/>
<use xlink:href="#glyph-2-1" x="13.351563" y="128.286621"/>
<use xlink:href="#glyph-2-2" x="13.351563" y="122.168945"/>
<use xlink:href="#glyph-2-3" x="13.351563" y="116.668945"/>
<use xlink:href="#glyph-2-4" x="13.351563" y="113.612793"/>
<use xlink:href="#glyph-2-5" x="13.351563" y="107.495117"/>
<use xlink:href="#glyph-2-6" x="13.351563" y="101.377441"/>
<use xlink:href="#glyph-2-2" x="13.351563" y="95.259766"/>
</g>
</svg>
